/* XPM */
static char *ffb9c69fb23b4f01923637edc2d1b6f7WIomG5rrklKt1zd7[] = {
/* columns rows colors chars-per-pixel */
"64 64 5 1 ",
"  c None",
". c #282828",
"X c #B86028",
"o c #F8B050",
"O c #F880B0",
/* pixels */
"                                                                ",
"                                                                ",
"                                                                ",
"                                                                ",
"                                                                ",
"                                                                ",
"                                                                ",
"                                                                ",
"                                                                ",
"                                                                ",
"                                                                ",
"                                                                ",
"                                                                ",
"                                                                ",
"                                                                ",
"                                                                ",
"                                                                ",
"                                                                ",
"                                                                ",
"                                                                ",
"                                                                ",
"                                                                ",
"                                                                ",
"                                                                ",
"                        .   ....    .                           ",
"                       .O. .o.XX.. .o.                          ",
"                       .O. .Xo..Xo.oXX.                         ",
"                        .O.O.XX.oX.oX.                          ",
"                         .OOO..XXX.X.                           ",
"                        .O.O.O....O.                            ",
"                       .O. .X.OOOO.X.                           ",
"                       .O..XXX....XXX.                          ",
"                        ..XXXXXXXXXoXX.                         ",
"                         .XXXoXXXooooX.                         ",
"                         .XXXXoooooooX.                         ",
"                         .XXXXooooooXX.                         ",
"                          .XXXXooooXX.                          ",
"                           ..XXXXXX..                           ",
"                             ......                             ",
"                                                                ",
"                                                                ",
"                                                                ",
"                                                                ",
"                                                                ",
"                                                                ",
"                                                                ",
"                                                                ",
"                                                                ",
"                                                                ",
"                                                                ",
"                                                                ",
"                                                                ",
"                                                                ",
"                                                                ",
"                                                                ",
"                                                                ",
"                                                                ",
"                                                                ",
"                                                                ",
"                                                                ",
"                                                                ",
"                                                                ",
"                                                                ",
"                                                                "
};
