/* XPM */
static char *result[] = {
/* columns rows colors chars-per-pixel */
"64 64 15 1 ",
"  c #282828",
". c #C01820",
"X c #885828",
"o c #B86820",
"O c #F87800",
"+ c #509010",
"@ c #78B820",
"# c #389068",
"$ c #40D870",
"% c #E09050",
"& c #F0A068",
"* c #F0D840",
"= c #E860B0",
"- c #F8F8F8",
"; c None",
/* pixels */
";;;;;;;;;;;;;;;;;;;;;;;;;;            ;;;;;;;;;;;;;;;;;;;;;;;;;;",
";;;;;;;;;;;;;;;;;;;;;;;;;;            ;;;;;;;;;;;;;;;;;;;;;;;;;;",
";;;;;;;;;;;;;;;;;;;;;;;;;;            ;;;;;;;;;;;;;;;;;;;;;;;;;;",
";;;;;;;;;;   ;;;;;;;;;    +++@@@@@@+++    ;;;;;;;;;;;;;;;;;;;;;;",
";;;;;;;;;;   ;;;;;;;;;    +++@@@@@@+++    ;;;;;;;;;;;;;;;;;;;;;;",
";;;;;;    ===         +++++++@@@@@@@@@++++   ;;;;;;   ;;;;;;;;;;",
";;;;;;    ===         +++++++@@@@@@@@@++++   ;;;;;;   ;;;;;;;;;;",
";;;;;;    ===         +++++++@@@@@@@@@++++   ;;;;;;   ;;;;;;;;;;",
";;;;;;    ======   OOOOOOO++++++@@@@@@@@@@         @@@    ;;;;;;",
";;;;;;    ======   OOOOOOO++++++@@@@@@@@@@         @@@    ;;;;;;",
";;;;;;    ======   OOOOOOO++++++@@@@@@@@@@         @@@    ;;;;;;",
";;;;;;    =========   OOOOOOOOOO++++++++++   +++@@@@@@    ;;;;;;",
";;;;;;    =========   OOOOOOOOOO++++++++++   +++@@@@@@    ;;;;;;",
";;;;;;    ============       OOOOOO   +++++++@@@@@@+++    ;;;;;;",
";;;;;;    ============       OOOOOO   +++++++@@@@@@+++    ;;;;;;",
";;;;;;    ============       OOOOOO   +++++++@@@@@@+++    ;;;;;;",
";;;;;;;;;;      =============      &&&    +++++++++   ;;;;;;;;;;",
";;;;;;;;;;      =============      &&&    +++++++++   ;;;;;;;;;;",
";;;;;;;;;;      =============      &&&    +++++++++   ;;;;;;;;;;",
";;;;;;;;;;   ooo      =======   &&&&&&             ;;;;;;;;;;;;;",
";;;;;;;;;;   ooo      =======   &&&&&&             ;;;;;;;;;;;;;",
";;;;;;;;;;   &&&   ---    ===   &&&ooo          ;;;;;;;;;;;;;;;;",
";;;;;;;;;;   &&&   ---    ===   &&&ooo          ;;;;;;;;;;;;;;;;",
";;;;;;;;;;   &&&   ---    ===   &&&ooo          ;;;;;;;;;;;;;;;;",
";;;;;;    &&&&&&   ---    ======   ooo    ======   ;;;;;;;;;;;;;",
";;;;;;    &&&&&&   ---    ======   ooo    ======   ;;;;;;;;;;;;;",
";;;;;;    &&&&&&   ---    ======   ooo    ======   ;;;;;;;;;;;;;",
";;;;;;;;;;   ooo&&&ooo&&&&      ooo   ====      ;;;;;;;;;;;;;;;;",
";;;;;;;;;;   ooo&&&ooo&&&&      ooo   ====      ;;;;;;;;;;;;;;;;",
";;;;;;;;;;         ooooooooooooo          ;;;;;;;;;;;;;;;;;;;;;;",
";;;;;;;;;;         ooooooooooooo          ;;;;;;;;;;;;;;;;;;;;;;",
";;;;;;;;;;         ooooooooooooo          ;;;;;;;;;;;;;;;;;;;;;;",
";;;;;;;;;;   ooo                ######    ;;;;;;;;;;;;;;;;;;;;;;",
";;;;;;;;;;   ooo                ######    ;;;;;;;;;;;;;;;;;;;;;;",
";;;;;;;;;;   ooo                ######    ;;;;;;;;;;;;;;;;;;;;;;",
";;;;;;;;;;;;;      ###    XXX   ###$$$    ;;;;;;;;;;;;;;;;;;;;;;",
";;;;;;;;;;;;;      ###    XXX   ###$$$    ;;;;;;;;;;;;;;;;;;;;;;",
";;;;;;;;;;   %%%%%%   XXXXXXX   ###$$$             ;;;;;;;;;;;;;",
";;;;;;;;;;   %%%%%%   XXXXXXX   ###$$$             ;;;;;;;;;;;;;",
";;;;;;;;;;   %%%%%%   XXXXXXX   ###$$$             ;;;;;;;;;;;;;",
";;;;;;       %%%%%%   XXXXXXX   ###$$$    ***   OOO   ;;;;;;;;;;",
";;;;;;       %%%%%%   XXXXXXX   ###$$$    ***   OOO   ;;;;;;;;;;",
";;;;;;       %%%%%%   XXXXXXX   ###$$$    ***   OOO   ;;;;;;;;;;",
";;;;;;    ...                ######*******###   ...OOO    ;;;;;;",
";;;;;;    ...                ######*******###   ...OOO    ;;;;;;",
";;;;;;       ...   #######*********#######      ...OOO    ;;;;;;",
";;;;;;       ...   #######*********#######      ...OOO    ;;;;;;",
";;;;;;       ...   #######*********#######      ...OOO    ;;;;;;",
";;;;;;;;;;                ############       ;;;      ;;;;;;;;;;",
";;;;;;;;;;                ############       ;;;      ;;;;;;;;;;",
";;;;;;;;;;                ############       ;;;      ;;;;;;;;;;",
";;;;;;;;;;;;;                                ;;;;;;;;;;;;;;;;;;;",
";;;;;;;;;;;;;                                ;;;;;;;;;;;;;;;;;;;",
";;;;;;;;;;                                      ;;;;;;;;;;;;;;;;",
";;;;;;;;;;                                      ;;;;;;;;;;;;;;;;",
";;;;;;;;;;                                      ;;;;;;;;;;;;;;;;",
";;;;;;;;;;                                      ;;;;;;;;;;;;;;;;",
";;;;;;;;;;                                      ;;;;;;;;;;;;;;;;",
";;;;;;;;;;                                      ;;;;;;;;;;;;;;;;",
";;;;;;;;;;;;;                                ;;;;;;;;;;;;;;;;;;;",
";;;;;;;;;;;;;                                ;;;;;;;;;;;;;;;;;;;",
";;;;;;;;;;;;;;;;;;;                   ;;;;;;;;;;;;;;;;;;;;;;;;;;",
";;;;;;;;;;;;;;;;;;;                   ;;;;;;;;;;;;;;;;;;;;;;;;;;",
";;;;;;;;;;;;;;;;;;;                   ;;;;;;;;;;;;;;;;;;;;;;;;;;"
};
