/* XPM */
static char *result[] = {
/* columns rows colors chars-per-pixel */
"64 64 14 1 ",
"  c #282828",
". c #C01820",
"X c #885828",
"o c #B86820",
"O c #F87800",
"+ c #509010",
"@ c #78B820",
"# c #389068",
"$ c #40D870",
"% c #F0A068",
"& c #F0D840",
"* c #E860B0",
"= c #F8F8F8",
"- c None",
/* pixels */
"----------------------------------------------------------------",
"----------------------------------------------------------------",
"----------------------------------------------------------------",
"--------------------------            --------------------------",
"--------------------------            --------------------------",
"-------------------       ++++++++++++       -------------------",
"-------------------       ++++++++++++       -------------------",
"-------------------       ++++++++++++       -------------------",
"----------   ---   +++++++@@@@@@@@@@@@@@@@+++   ---   ----------",
"----------   ---   +++++++@@@@@@@@@@@@@@@@+++   ---   ----------",
"----------   ---   +++++++@@@@@@@@@@@@@@@@+++   ---   ----------",
"------    %%%      +++@@@@@@@@@@+++++++++++++      %%%    ------",
"------    %%%      +++@@@@@@@@@@+++++++++++++      %%%    ------",
"------    %%%      +++@@@@++++++      ++++++++++   %%%    ------",
"------    %%%      +++@@@@++++++      ++++++++++   %%%    ------",
"------    %%%      +++@@@@++++++      ++++++++++   %%%    ------",
"------    ooo   OOO   ++++   +++++++++++++   OOO   ooo    ------",
"------    ooo   OOO   ++++   +++++++++++++   OOO   ooo    ------",
"------    ooo   OOO   ++++   +++++++++++++   OOO   ooo    ------",
"------    oooooo   OOO    +++@@@@@@@@@====+++      ooo    ------",
"------    oooooo   OOO    +++@@@@@@@@@====+++      ooo    ------",
"------    oooooo      OOOO   ++++++@@@@@@@+++   oooooo    ------",
"------    oooooo      OOOO   ++++++@@@@@@@+++   oooooo    ------",
"------    oooooo      OOOO   ++++++@@@@@@@+++   oooooo    ------",
"----------      ***             +++@@@@@@@+++   ***   ----------",
"----------      ***             +++@@@@@@@+++   ***   ----------",
"----------      ***             +++@@@@@@@+++   ***   ----------",
"-------------   **********      ++++++@@@@   ***   -------------",
"-------------   **********      ++++++@@@@   ***   -------------",
"-------------      **********   ++++++@@@@            ----------",
"-------------      **********   ++++++@@@@            ----------",
"-------------      **********   ++++++@@@@            ----------",
"----------   XXXXXX       ******   +++@@@@      XXXXXX    ------",
"----------   XXXXXX       ******   +++@@@@      XXXXXX    ------",
"----------   XXXXXX       ******   +++@@@@      XXXXXX    ------",
"------    XXXXXX   ###$$$$                ###   XXXXXX    ------",
"------    XXXXXX   ###$$$$                ###   XXXXXX    ------",
"------       XXX   #######$$$$$$$$$$$$$$$$###   XXX   ----------",
"------       XXX   #######$$$$$$$$$$$$$$$$###   XXX   ----------",
"------       XXX   #######$$$$$$$$$$$$$$$$###   XXX   ----------",
"----------      ##########$$$$$$$$$$$$##########   -------------",
"----------      ##########$$$$$$$$$$$$##########   -------------",
"----------      ##########$$$$$$$$$$$$##########   -------------",
"-------------   &&&#############$$$$$$#######&&&   -------------",
"-------------   &&&#############$$$$$$#######&&&   -------------",
"-------------   ###&&&&&&&############&&&&&&&###   -------------",
"-------------   ###&&&&&&&############&&&&&&&###   -------------",
"-------------   ###&&&&&&&############&&&&&&&###   -------------",
"-------------      #######&&&&&&&&&&&&#######      -------------",
"-------------      #######&&&&&&&&&&&&#######      -------------",
"-------------      #######&&&&&&&&&&&&#######      -------------",
"-------------   ...       ############          ----------------",
"-------------   ...       ############          ----------------",
"-------------   ..........                         -------------",
"-------------   ..........                         -------------",
"-------------   ..........                         -------------",
"-------------                                      -------------",
"-------------                                      -------------",
"-------------                                      -------------",
"----------------                                ----------------",
"----------------                                ----------------",
"----------------------                    ----------------------",
"----------------------                    ----------------------",
"----------------------                    ----------------------"
};
