/* XPM */
static char *result[] = {
/* columns rows colors chars-per-pixel */
"64 64 8 1 ",
"  c gray20",
". c #CC3333",
"X c #CC6600",
"o c #669933",
"O c #FF9933",
"+ c #99FF66",
"@ c white",
"# c None",
/* pixels */
"################################################################",
"################################################################",
"################################################################",
"#############################      #############################",
"#############################      #############################",
"##########################   XXXXXX   ##########################",
"##########################   XXXXXX   ##########################",
"##########################   XXXXXX   ##########################",
"##########################   XXXOOO   ##########################",
"##########################   XXXOOO   ##########################",
"##########################   XXXOOO   ##########################",
"##########################   XXXOOO   ##########################",
"##########################   XXXOOO   ##########################",
"######################    XXXOOOOOOOOO    ######################",
"######################    XXXOOOOOOOOO    ######################",
"###################   XXXXXXXOOO@@@OOOXXXX   ###################",
"###################   XXXXXXXOOO@@@OOOXXXX   ###################",
"###################   XXXXXXXOOO@@@OOOXXXX   ###################",
"#############         XXXXXXXOOOOOOOOOXXXX         #############",
"#############         XXXXXXXOOOOOOOOOXXXX         #############",
"##########   XXXXXXXXX    OOOOOOOOOXXX    OOOXXXXXX   ##########",
"##########   XXXXXXXXX    OOOOOOOOOXXX    OOOXXXXXX   ##########",
"##########   XXXXXXXXX    OOOOOOOOOXXX    OOOXXXXXX   ##########",
"######    XXXXXXXXXXXXXXXXXXXXXXXXXOOOOOOOOOOOOOXXXXXX    ######",
"######    XXXXXXXXXXXXXXXXXXXXXXXXXOOOOOOOOOOOOOXXXXXX    ######",
"######    XXXXXXXXXXXXXXXXXXXXXXXXXOOOOOOOOOOOOOXXXXXX    ######",
"##########      XXXXXXXXXXXXXOOOOOOOOOOOOOOOOXXX      ##########",
"##########      XXXXXXXXXXXXXOOOOOOOOOOOOOOOOXXX      ##########",
"################      XXXXXXXXXXXXXXXXXXXX      ################",
"################      XXXXXXXXXXXXXXXXXXXX      ################",
"################      XXXXXXXXXXXXXXXXXXXX      ################",
"#############   ooo       @@@      @@@       +++   #############",
"#############   ooo       @@@      @@@       +++   #############",
"#############   ooo       @@@      @@@       +++   #############",
"#############   ooo       @@@      @@@       +++   #############",
"#############   ooo       @@@      @@@       +++   #############",
"##########   ooo@@@+++                    +++@@@+++   ##########",
"##########   ooo@@@+++                    +++@@@+++   ##########",
"######    ooo+++@@@@@@++++            ++++@@@@@@@@@+++    ######",
"######    ooo+++@@@@@@++++            ++++@@@@@@@@@+++    ######",
"######    ooo+++@@@@@@++++            ++++@@@@@@@@@+++    ######",
"######          @@@   @@@@@@@@@@@@@+++@@@@   +++          ######",
"######          @@@   @@@@@@@@@@@@@+++@@@@   +++          ######",
"######          @@@   @@@@@@@@@@@@@+++@@@@   +++          ######",
"######    OOOOOO      ++++@@@@@@@@@@@@@@@@      OOOOOO    ######",
"######    OOOOOO      ++++@@@@@@@@@@@@@@@@      OOOOOO    ######",
"######    OOOOOO   +++....+++......@@@....ooo   OOOOOO    ######",
"######    OOOOOO   +++....+++......@@@....ooo   OOOOOO    ######",
"######    OOOOOO   +++....+++......@@@....ooo   OOOOOO    ######",
"######             ooo....................ooo             ######",
"######             ooo....................ooo             ######",
"##########   oooooo+++oooo............@@@@@@@oooooo   ##########",
"##########   oooooo+++oooo............@@@@@@@oooooo   ##########",
"##########   oooooo+++oooo............@@@@@@@oooooo   ##########",
"##########   ooooooooo+++++++......@@@@@@@+++oooooo   ##########",
"##########   ooooooooo+++++++......@@@@@@@+++oooooo   ##########",
"##########      oooooo    ++++++++++++++++oooooo      ##########",
"##########      oooooo    ++++++++++++++++oooooo      ##########",
"##########      oooooo    ++++++++++++++++oooooo      ##########",
"################      oooooooooooooooooooo      ################",
"################      oooooooooooooooooooo      ################",
"######################                    ######################",
"######################                    ######################",
"######################                    ######################"
};
