/* XPM */
static char *result[] = {
/* columns rows colors chars-per-pixel */
"64 64 8 1 ",
"  c gray20",
". c #CC3333",
"X c #CC6600",
"o c #669933",
"O c #FF9933",
"+ c #99FF66",
"@ c white",
"# c None",
/* pixels */
"################################################################",
"################################################################",
"################################################################",
"#############################      #############################",
"#############################      #############################",
"##########################   XXXXXX   ##########################",
"##########################   XXXXXX   ##########################",
"##########################   XXXXXX   ##########################",
"##########################   XXXOOO   ##########################",
"##########################   XXXOOO   ##########################",
"##########################   XXXOOO   ##########################",
"##########################   XXXOOO   ##########################",
"##########################   XXXOOO   ##########################",
"######################    XXXOOOOOOOOO    ######################",
"######################    XXXOOOOOOOOO    ######################",
"###################   XXXXXXXOOO@@@OOOXXXX   ###################",
"###################   XXXXXXXOOO@@@OOOXXXX   ###################",
"###################   XXXXXXXOOO@@@OOOXXXX   ###################",
"#############         XXXXXXXOOOOOOOOOXXXX         #############",
"#############         XXXXXXXOOOOOOOOOXXXX         #############",
"##########   XXXXXXXXX    OOOOOOOOOXXX    OOOXXXXXX   ##########",
"##########   XXXXXXXXX    OOOOOOOOOXXX    OOOXXXXXX   ##########",
"##########   XXXXXXXXX    OOOOOOOOOXXX    OOOXXXXXX   ##########",
"######    XXXXXXXXXXXXXXXXXXXXXXXXXOOOOOOOOOOOOOXXXXXX    ######",
"######    XXXXXXXXXXXXXXXXXXXXXXXXXOOOOOOOOOOOOOXXXXXX    ######",
"######    XXXXXXXXXXXXXXXXXXXXXXXXXOOOOOOOOOOOOOXXXXXX    ######",
"##########      XXXXXXXXXXXXXOOOOOOOOOOOOOOOOXXX      ##########",
"##########      XXXXXXXXXXXXXOOOOOOOOOOOOOOOOXXX      ##########",
"######    OOOOOO      XXXXXXXXXXXXXXXXXXXX      OOOOOO    ######",
"######    OOOOOO      XXXXXXXXXXXXXXXXXXXX      OOOOOO    ######",
"######    OOOOOO      XXXXXXXXXXXXXXXXXXXX      OOOOOO    ######",
"######    OOO   +++       @@@      @@@       +++   OOO    ######",
"######    OOO   +++       @@@      @@@       +++   OOO    ######",
"######       ++++++       @@@      @@@       @@@+++       ######",
"######       ++++++       @@@      @@@       @@@+++       ######",
"######       ++++++       @@@      @@@       @@@+++       ######",
"##########   ++++++ooo                    @@@@@@+++   ##########",
"##########   ++++++ooo                    @@@@@@+++   ##########",
"##########   ooo+++@@@oooo            ++++@@@+++ooo   ##########",
"##########   ooo+++@@@oooo            ++++@@@+++ooo   ##########",
"##########   ooo+++@@@oooo            ++++@@@+++ooo   ##########",
"##########   ooo++++++@@@@@@@@@@@@@@@@@@@@@@@+++ooo   ##########",
"##########   ooo++++++@@@@@@@@@@@@@@@@@@@@@@@+++ooo   ##########",
"##########   ooo++++++@@@@@@@@@@@@@@@@@@@@@@@+++ooo   ##########",
"#############   ooo+++....@@@......@@@....+++ooo   #############",
"#############   ooo+++....@@@......@@@....+++ooo   #############",
"##########      oooooo....................+++ooo      ##########",
"##########      oooooo....................+++ooo      ##########",
"##########      oooooo....................+++ooo      ##########",
"##########   ooo   ooo++++............++++ooo   +++   ##########",
"##########   ooo   ooo++++............++++ooo   +++   ##########",
"##########   oooooo++++++++++......+++@@@@+++ooo+++   ##########",
"##########   oooooo++++++++++......+++@@@@+++ooo+++   ##########",
"##########   oooooo++++++++++......+++@@@@+++ooo+++   ##########",
"##########   ooooooooo+++++++@@@@@@@@@oooo+++++++++   ##########",
"##########   ooooooooo+++++++@@@@@@@@@oooo+++++++++   ##########",
"#############   ooo   oooo++++++++++++    ooo+++   #############",
"#############   ooo   oooo++++++++++++    ooo+++   #############",
"#############   ooo   oooo++++++++++++    ooo+++   #############",
"################      oooooooooooooooooooo      ################",
"################      oooooooooooooooooooo      ################",
"######################                    ######################",
"######################                    ######################",
"######################                    ######################"
};
