/* XPM */
static char *result[] = {
/* columns rows colors chars-per-pixel */
"64 64 12 1 ",
"  c #282828",
". c #C01820",
"X c #885828",
"o c #B86820",
"O c #509010",
"+ c #389068",
"@ c #40D870",
"# c #E09050",
"$ c #F0A068",
"% c #E860B0",
"& c #F8F8F8",
"* c None",
/* pixels */
"****************************************************************",
"****************************************************************",
"****************************************************************",
"****************************************************************",
"****************************************************************",
"****************************************************************",
"****************************************************************",
"****************************************************************",
"****************************************************************",
"****************************************************************",
"****************************************************************",
"****************************   *********************************",
"****************************   *********************************",
"****************************   *********************************",
"**********************      $$$  *******************************",
"**********************      $$$  *******************************",
"**********************      $$$  *******************************",
"*****************     OOOOOO   $$   ***   **********************",
"*****************     OOOOOO   $$   ***   **********************",
"*****************  OOO   %%%   oo      ###   *******************",
"*****************  OOO   %%%   oo      ###   *******************",
"*****************  OOO   %%%   oo      ###   *******************",
"**************   OO   %%%%%%   $$oooXXXXXX   *******************",
"**************   OO   %%%%%%   $$oooXXXXXX   *******************",
"**************   OO   %%%%%%   $$oooXXXXXX   *******************",
"**************   OO%%%%%%   ooo$$$$$   XXX   *******************",
"**************   OO%%%%%%   ooo$$$$$   XXX   *******************",
"**************   OO%%%%%%   ooo$$$$$   XXX   *******************",
"***********   ooo        oooooo$$   +++   **********************",
"***********   ooo        oooooo$$   +++   **********************",
"***********   ooo        oooooo$$   +++   **********************",
"**************   $$oooooo&&&ooooo   @@@+++   *******************",
"**************   $$oooooo&&&ooooo   @@@+++   *******************",
"*****************     oooooo     @@@@@@   ...  *****************",
"*****************     oooooo     @@@@@@   ...  *****************",
"*****************     oooooo     @@@@@@   ...  *****************",
"*******************   XXX   +++++++++++   ...  *****************",
"*******************   XXX   +++++++++++   ...  *****************",
"*******************   XXX   +++++++++++   ...  *****************",
"*****************  ###XXXXXX   +++++           *****************",
"*****************  ###XXXXXX   +++++           *****************",
"*****************  ###XXXXXX   +++++           *****************",
"*******************         ***     ...   **********************",
"*******************         ***     ...   **********************",
"*******************         ***     ...   **********************",
"*********************************      *************************",
"*********************************      *************************",
"****************************************************************",
"****************************************************************",
"****************************************************************",
"****************************************************************",
"****************************************************************",
"****************************************************************",
"****************************************************************",
"****************************************************************",
"****************************************************************",
"****************************************************************",
"****************************************************************",
"****************************************************************",
"****************************************************************",
"****************************************************************",
"****************************************************************",
"****************************************************************",
"****************************************************************"
};
