/* XPM */
static char *result[] = {
/* columns rows colors chars-per-pixel */
"64 64 14 1 ",
"  c #282828",
". c #C01820",
"X c #885828",
"o c #B86820",
"O c #F87800",
"+ c #509010",
"@ c #389068",
"# c #40D870",
"$ c #E09050",
"% c #F0A068",
"& c #F0D840",
"* c #E860B0",
"= c #F8F8F8",
"- c None",
/* pixels */
"----------------------------------------------------------------",
"----------------------------------------------------------------",
"----------------------------------------------------------------",
"----------------------------------------------------------------",
"----------------------------------------------------------------",
"----------------------------------------------------------------",
"----------------------------------------------------------------",
"----------------------------------------------------------------",
"-------------------      ---   ---------------------------------",
"-------------------      ---   ---------------------------------",
"-------------------      ---   ---------------------------------",
"--------------     +++OOO   %%%  -------------------------------",
"--------------     +++OOO   %%%  -------------------------------",
"--------------     +++OOO   %%%  -------------------------------",
"-----------   +++OO      ***   %%   ------     -----------------",
"-----------   +++OO      ***   %%   ------     -----------------",
"-----------   +++OO      ***   %%   ------     -----------------",
"-----------   OOO  ******   ooooo   ---   $$$$$   --------------",
"-----------   OOO  ******   ooooo   ---   $$$$$   --------------",
"--------   +++   ********   %%%%%ooo   XXXXXX  -----------------",
"--------   +++   ********   %%%%%ooo   XXXXXX  -----------------",
"--------   +++   ********   %%%%%ooo   XXXXXX  -----------------",
"--------   OOO   *****   %%%   %%%%%   XXXXXX  -----------------",
"--------   OOO   *****   %%%   %%%%%   XXXXXX  -----------------",
"--------   OOO   *****   %%%   %%%%%   XXXXXX  -----------------",
"-----------   ***     ===%%%%%%%%%%%   @@@   -------------------",
"-----------   ***     ===%%%%%%%%%%%   @@@   -------------------",
"-----------   ***     ===%%%%%%%%%%%   @@@   -------------------",
"--------   %%%   oo===   ===%%%%%   @@@###     -----------------",
"--------   %%%   oo===   ===%%%%%   @@@###     -----------------",
"--------   %%%   oo===   ===%%%%%   @@@###     -----------------",
"-----------   oooooooo===oooooooo   #########@@   --------------",
"-----------   oooooooo===oooooooo   #########@@   --------------",
"--------------     ooooooooo     #########@@@  ...   -----------",
"--------------     ooooooooo     #########@@@  ...   -----------",
"--------------     ooooooooo     #########@@@  ...   -----------",
"-------------------         @@@@@@@@@@@###   ..      -----------",
"-------------------         @@@@@@@@@@@###   ..      -----------",
"-------------------         @@@@@@@@@@@###   ..      -----------",
"-----------------  XXXXXX@@@@@@@@&&&@@@@@@   ..      -----------",
"-----------------  XXXXXX@@@@@@@@&&&@@@@@@   ..      -----------",
"-----------------  XXXXXX@@@@@@@@&&&@@@@@@   ..      -----------",
"--------------   $$XXXXXX      &&@@@@@@           --------------",
"--------------   $$XXXXXX      &&@@@@@@           --------------",
"--------------   $$XXXXXX      &&@@@@@@           --------------",
"--------------   $$      ---   @@      ...   -------------------",
"--------------   $$      ---   @@      ...   -------------------",
"-----------------  ------------     ......   -------------------",
"-----------------  ------------     ......   -------------------",
"-----------------  ------------     ......   -------------------",
"------------------------------------      ----------------------",
"------------------------------------      ----------------------",
"------------------------------------      ----------------------",
"----------------------------------------------------------------",
"----------------------------------------------------------------",
"----------------------------------------------------------------",
"----------------------------------------------------------------",
"----------------------------------------------------------------",
"----------------------------------------------------------------",
"----------------------------------------------------------------",
"----------------------------------------------------------------",
"----------------------------------------------------------------",
"----------------------------------------------------------------",
"----------------------------------------------------------------"
};
