/* XPM */
static char *result[] = {
/* columns rows colors chars-per-pixel */
"64 64 4 1 ",
"  c #282828",
". c #287838",
"X c #489848",
"o c None",
/* pixels */
"oooooooooooooooo            oooooooo            oooooooooooooooo",
"oooooooooooooooo            oooooooo            oooooooooooooooo",
"oooooooooooooooo            oooooooo            oooooooooooooooo",
"oooooooooooooooo            oooooooo            oooooooooooooooo",
"oooooooooooo    XXXXXXXX....        ....XXXXXXXX    oooooooooooo",
"oooooooooooo    XXXXXXXX....        ....XXXXXXXX    oooooooooooo",
"oooooooooooo    XXXXXXXX....        ....XXXXXXXX    oooooooooooo",
"oooooooooooo    XXXXXXXX....        ....XXXXXXXX    oooooooooooo",
"oooooooooooo    XXXX........        ........XXXX    oooooooooooo",
"oooooooooooo    XXXX........        ........XXXX    oooooooooooo",
"oooooooooooo    XXXX........        ........XXXX    oooooooooooo",
"oooooooooooo    XXXX........        ........XXXX    oooooooooooo",
"oooo                ........        ........                oooo",
"oooo                ........        ........                oooo",
"oooo                ........        ........                oooo",
"oooo                ........        ........                oooo",
"    XXXXXXXX........        ........        ........XXXXXXXX    ",
"    XXXXXXXX........        ........        ........XXXXXXXX    ",
"    XXXXXXXX........        ........        ........XXXXXXXX    ",
"    XXXXXXXX........        ........        ........XXXXXXXX    ",
"    XXXX................    XXXXXXXX    ................XXXX    ",
"    XXXX................    XXXXXXXX    ................XXXX    ",
"    XXXX................    XXXXXXXX    ................XXXX    ",
"    XXXX................    XXXXXXXX    ................XXXX    ",
"        ................    XXXXXXXX    ................        ",
"        ................    XXXXXXXX    ................        ",
"        ................    XXXXXXXX    ................        ",
"        ................    XXXXXXXX    ................        ",
"oooo                        ........                        oooo",
"oooo                        ........                        oooo",
"oooo                        ........                        oooo",
"oooo                        ........                        oooo",
"        ................                ................        ",
"        ................                ................        ",
"        ................                ................        ",
"        ................                ................        ",
"    XXXX............        ........        ............XXXX    ",
"    XXXX............        ........        ............XXXX    ",
"    XXXX............        ........        ............XXXX    ",
"    XXXX............        ........        ............XXXX    ",
"    XXXXXXXX....        ................        ....XXXXXXXX    ",
"    XXXXXXXX....        ................        ....XXXXXXXX    ",
"    XXXXXXXX....        ................        ....XXXXXXXX    ",
"    XXXXXXXX....        ................        ....XXXXXXXX    ",
"                        ................                        ",
"                        ................                        ",
"                        ................                        ",
"                        ................                        ",
"oooo        ........    XXXX........XXXX    ........        oooo",
"oooo        ........    XXXX........XXXX    ........        oooo",
"oooo        ........    XXXX........XXXX    ........        oooo",
"oooo        ........    XXXX........XXXX    ........        oooo",
"oooooooo    XXXX....        XXXXXXXX        ....XXXX    oooooooo",
"oooooooo    XXXX....        XXXXXXXX        ....XXXX    oooooooo",
"oooooooo    XXXX....        XXXXXXXX        ....XXXX    oooooooo",
"oooooooo    XXXX....        XXXXXXXX        ....XXXX    oooooooo",
"oooooooo                                                oooooooo",
"oooooooo                                                oooooooo",
"oooooooo                                                oooooooo",
"oooooooo                                                oooooooo",
"oooooooooooooooooooooooooooo        oooooooooooooooooooooooooooo",
"oooooooooooooooooooooooooooo        oooooooooooooooooooooooooooo",
"oooooooooooooooooooooooooooo        oooooooooooooooooooooooooooo",
"oooooooooooooooooooooooooooo        oooooooooooooooooooooooooooo"
};
