/* XPM */
static char *_ce42abd32604893d93acec4436126dcFUi3DLwiUG6Lhv2X[] = {
/* columns rows colors chars-per-pixel */
"64 64 10 1 ",
"  c #282828",
". c #282C28",
"X c #295728",
"o c #285B28",
"O c #489848",
"+ c #51806F",
"@ c #51856F",
"# c #78B88F",
"$ c #78BC8F",
"% c #B0E8B7",
/* pixels */
"OOOOOOOOOOOOOOOOOOOOOOOOOOOOOOOOOOOOOOOOOOOOOOOOOOOOOOOOOOOOOOOO",
"OOOOOOOOOOOOOOOOOOOOOOOOOOOOOOOOOOOOOOOOOOOOOOOOOOOOOOOOOOOOOOOO",
"OOOOOOOOOOOOOOOOOOOOOOOOOOOOOOOOOOOOOOOOOOOOOOOOOOOOOOOOOOOOOOOO",
"OOOOOOOOOOOOOOOO                                OOOOOOOOOOOOOOOO",
"OOOOOOOOOOOOOOOO                                OOOOOOOOOOOOOOOO",
"OOOOOOOOOOOOOOOO                                OOOOOOOOOOOOOOOO",
"OOOOOOOOOOOOOOOO                                OOOOOOOOOOOOOOOO",
"OOOOOOOOOOOO    ++++####++++++++++++++++####++++....OOOOOOOOOOOO",
"OOOOOOOOOOOO    ++++####++++++++++++++++####++++....OOOOOOOOOOOO",
"OOOOOOOOOOOO    ++++####++++++++++++++++####++++....OOOOOOOOOOOO",
"OOOOOOOOOOOO    ++++####++++++++++++++++####++++....OOOOOOOOOOOO",
"OOOOOOOO    ++++++++####%%%%%%%%%%%%%%%%####++++@@@@....OOOOOOOO",
"OOOOOOOO    ++++++++####%%%%%%%%%%%%%%%%####++++@@@@....OOOOOOOO",
"OOOOOOOO    ++++++++####%%%%%%%%%%%%%%%%####++++@@@@....OOOOOOOO",
"OOOOOOOO    ++++++++####%%%%%%%%%%%%%%%%####++++@@@@....OOOOOOOO",
"OOOO    ++++++++####%%%%################%%%%####@@@@@@@@....OOOO",
"OOOO    ++++++++####%%%%################%%%%####@@@@@@@@....OOOO",
"OOOO    ++++++++####%%%%################%%%%####@@@@@@@@....OOOO",
"OOOO    ++++++++####%%%%################%%%%####@@@@@@@@....OOOO",
"    ++++########%%%%########%%%%%%%%########%%%%$$$$$$$$@@@@....",
"    ++++########%%%%########%%%%%%%%########%%%%$$$$$$$$@@@@....",
"    ++++########%%%%########%%%%%%%%########%%%%$$$$$$$$@@@@....",
"    ++++########%%%%########%%%%%%%%########%%%%$$$$$$$$@@@@....",
"    ++++++++####%%%%%%%%################%%%%%%%%$$$$@@@@@@@@....",
"    ++++++++####%%%%%%%%################%%%%%%%%$$$$@@@@@@@@....",
"    ++++++++####%%%%%%%%################%%%%%%%%$$$$@@@@@@@@....",
"    ++++++++####%%%%%%%%################%%%%%%%%$$$$@@@@@@@@....",
"    ++++++++####%%%%%%%%####%%%%%%%%####%%%%%%%%$$$$@@@@@@@@....",
"    ++++++++####%%%%%%%%####%%%%%%%%####%%%%%%%%$$$$@@@@@@@@....",
"    ++++++++####%%%%%%%%####%%%%%%%%####%%%%%%%%$$$$@@@@@@@@....",
"    ++++++++####%%%%%%%%####%%%%%%%%####%%%%%%%%$$$$@@@@@@@@....",
"    ++++++++####%%%%########%%%%%%%%########%%%%$$$$@@@@@@@@....",
"    ++++++++####%%%%########%%%%%%%%########%%%%$$$$@@@@@@@@....",
"    ++++++++####%%%%########%%%%%%%%########%%%%$$$$@@@@@@@@....",
"    ++++++++####%%%%########%%%%%%%%########%%%%$$$$@@@@@@@@....",
"    ++++############%%%%################%%%%####$$$$$$$$@@@@....",
"    ++++############%%%%################%%%%####$$$$$$$$@@@@....",
"    ++++############%%%%################%%%%####$$$$$$$$@@@@....",
"    ++++############%%%%################%%%%####$$$$$$$$@@@@....",
"    ++++####++++++++####%%%%%%%%%%%%%%%%####++++@@@@$$$$@@@@....",
"    ++++####++++++++####%%%%%%%%%%%%%%%%####++++@@@@$$$$@@@@....",
"    ++++####++++++++####%%%%%%%%%%%%%%%%####++++@@@@$$$$@@@@....",
"    ++++####++++++++####%%%%%%%%%%%%%%%%####++++@@@@$$$$@@@@....",
"XXXX    ++++++++++++########################++++@@@@@@@@....oooo",
"XXXX    ++++++++++++########################++++@@@@@@@@....oooo",
"XXXX    ++++++++++++########################++++@@@@@@@@....oooo",
"XXXX    ++++++++++++########################++++@@@@@@@@....oooo",
"OOOOXXXX    ++++++++########++++++++########++++@@@@....ooooOOOO",
"OOOOXXXX    ++++++++########++++++++########++++@@@@....ooooOOOO",
"OOOOXXXX    ++++++++########++++++++########++++@@@@....ooooOOOO",
"OOOOXXXX    ++++++++########++++++++########++++@@@@....ooooOOOO",
"OOOOOOOOXXXX    ++++####++++++++++++++++####++++....ooooOOOOOOOO",
"OOOOOOOOXXXX    ++++####++++++++++++++++####++++....ooooOOOOOOOO",
"OOOOOOOOXXXX    ++++####++++++++++++++++####++++....ooooOOOOOOOO",
"OOOOOOOOXXXX    ++++####++++++++++++++++####++++....ooooOOOOOOOO",
"OOOOOOOOOOOOXXXX    ++++++++++++++++++++++++    ooooOOOOOOOOOOOO",
"OOOOOOOOOOOOXXXX    ++++++++++++++++++++++++    ooooOOOOOOOOOOOO",
"OOOOOOOOOOOOXXXX    ++++++++++++++++++++++++    ooooOOOOOOOOOOOO",
"OOOOOOOOOOOOXXXX    ++++++++++++++++++++++++    ooooOOOOOOOOOOOO",
"OOOOOOOOOOOOOOOOXXXX                        XXXXOOOOOOOOOOOOOOOO",
"OOOOOOOOOOOOOOOOXXXX                        XXXXOOOOOOOOOOOOOOOO",
"OOOOOOOOOOOOOOOOXXXX                        XXXXOOOOOOOOOOOOOOOO",
"OOOOOOOOOOOOOOOOXXXX                        XXXXOOOOOOOOOOOOOOOO",
"OOOOOOOOOOOOOOOOOOOOOOOOOOOOOOOOOOOOOOOOOOOOOOOOOOOOOOOOOOOOOOOO"
};
