/* XPM */
static char *result[] = {
/* columns rows colors chars-per-pixel */
"64 64 11 1 ",
"  c #282828",
". c #282C28",
"X c #295728",
"o c #285B28",
"O c #489848",
"+ c #489C48",
"@ c #51806F",
"# c #51856F",
"$ c #78B88F",
"% c #78BC8F",
"& c #B0E8B7",
/* pixels */
"OOOOOOOOOOOOOOOOOOOOOOOOOOOOOOOOOOOOOOOOOOOOOOOO++++++++++++++++",
"OOOOOOOOOOOOOOOOOOOOOOOOOOOOOOOOOOOOOOOOOOOOOOOO++++++++++++++++",
"OOOOOOOOOOOOOOOOOOOOOOOOOOOOOOOOOOOOOOOOOOOOOOOO++++++++++++++++",
"OOOOOOOOOOOOOOOO                                ++++++++++++++++",
"OOOOOOOOOOOOOOOO                                ++++++++++++++++",
"OOOOOOOOOOOOOOOO                                ++++++++++++++++",
"OOOOOOOOOOOOOOOO                                ++++++++++++++++",
"OOOOOOOOOOOO    @@@@$$$$@@@@@@@@@@@@@@@@$$$$@@@@....++++++++++++",
"OOOOOOOOOOOO    @@@@$$$$@@@@@@@@@@@@@@@@$$$$@@@@....++++++++++++",
"OOOOOOOOOOOO    @@@@$$$$@@@@@@@@@@@@@@@@$$$$@@@@....++++++++++++",
"OOOOOOOOOOOO    @@@@$$$$@@@@@@@@@@@@@@@@$$$$@@@@....++++++++++++",
"OOOOOOOO    @@@@@@@@$$$$&&&&&&&&&&&&&&&&$$$$@@@@####....++++++++",
"OOOOOOOO    @@@@@@@@$$$$&&&&&&&&&&&&&&&&$$$$@@@@####....++++++++",
"OOOOOOOO    @@@@@@@@$$$$&&&&&&&&&&&&&&&&$$$$@@@@####....++++++++",
"OOOOOOOO    @@@@@@@@$$$$&&&&&&&&&&&&&&&&$$$$@@@@####....++++++++",
"OOOO    @@@@@@@@$$$$&&&&$$$$$$$$$$$$$$$$&&&&$$$$########....++++",
"OOOO    @@@@@@@@$$$$&&&&$$$$$$$$$$$$$$$$&&&&$$$$########....++++",
"OOOO    @@@@@@@@$$$$&&&&$$$$$$$$$$$$$$$$&&&&$$$$########....++++",
"OOOO    @@@@@@@@$$$$&&&&$$$$$$$$$$$$$$$$&&&&$$$$########....++++",
"    @@@@$$$$$$$$&&&&$$$$$$$$&&&&&&&&$$$$$$$$&&&&%%%%%%%%####....",
"    @@@@$$$$$$$$&&&&$$$$$$$$&&&&&&&&$$$$$$$$&&&&%%%%%%%%####....",
"    @@@@$$$$$$$$&&&&$$$$$$$$&&&&&&&&$$$$$$$$&&&&%%%%%%%%####....",
"    @@@@$$$$$$$$&&&&$$$$$$$$&&&&&&&&$$$$$$$$&&&&%%%%%%%%####....",
"    @@@@@@@@$$$$&&&&&&&&$$$$$$$$$$$$$$$$&&&&&&&&%%%%########....",
"    @@@@@@@@$$$$&&&&&&&&$$$$$$$$$$$$$$$$&&&&&&&&%%%%########....",
"    @@@@@@@@$$$$&&&&&&&&$$$$$$$$$$$$$$$$&&&&&&&&%%%%########....",
"    @@@@@@@@$$$$&&&&&&&&$$$$$$$$$$$$$$$$&&&&&&&&%%%%########....",
"    @@@@@@@@$$$$&&&&&&&&$$$$&&&&&&&&$$$$&&&&&&&&%%%%########....",
"    @@@@@@@@$$$$&&&&&&&&$$$$&&&&&&&&$$$$&&&&&&&&%%%%########....",
"    @@@@@@@@$$$$&&&&&&&&$$$$&&&&&&&&$$$$&&&&&&&&%%%%########....",
"    @@@@@@@@$$$$&&&&&&&&$$$$&&&&&&&&$$$$&&&&&&&&%%%%########....",
"    @@@@@@@@$$$$&&&&$$$$$$$$&&&&&&&&$$$$$$$$&&&&%%%%########....",
"    @@@@@@@@$$$$&&&&$$$$$$$$&&&&&&&&$$$$$$$$&&&&%%%%########....",
"    @@@@@@@@$$$$&&&&$$$$$$$$&&&&&&&&$$$$$$$$&&&&%%%%########....",
"    @@@@@@@@$$$$&&&&$$$$$$$$&&&&&&&&$$$$$$$$&&&&%%%%########....",
"    @@@@$$$$$$$$$$$$&&&&$$$$$$$$$$$$$$$$&&&&$$$$%%%%%%%%####....",
"    @@@@$$$$$$$$$$$$&&&&$$$$$$$$$$$$$$$$&&&&$$$$%%%%%%%%####....",
"    @@@@$$$$$$$$$$$$&&&&$$$$$$$$$$$$$$$$&&&&$$$$%%%%%%%%####....",
"    @@@@$$$$$$$$$$$$&&&&$$$$$$$$$$$$$$$$&&&&$$$$%%%%%%%%####....",
"    @@@@$$$$@@@@@@@@$$$$&&&&&&&&&&&&&&&&$$$$@@@@####%%%%####....",
"    @@@@$$$$@@@@@@@@$$$$&&&&&&&&&&&&&&&&$$$$@@@@####%%%%####....",
"    @@@@$$$$@@@@@@@@$$$$&&&&&&&&&&&&&&&&$$$$@@@@####%%%%####....",
"    @@@@$$$$@@@@@@@@$$$$&&&&&&&&&&&&&&&&$$$$@@@@####%%%%####....",
"XXXX    @@@@@@@@@@@@$$$$$$$$$$$$$$$$$$$$$$$$@@@@########....oooo",
"XXXX    @@@@@@@@@@@@$$$$$$$$$$$$$$$$$$$$$$$$@@@@########....oooo",
"XXXX    @@@@@@@@@@@@$$$$$$$$$$$$$$$$$$$$$$$$@@@@########....oooo",
"XXXX    @@@@@@@@@@@@$$$$$$$$$$$$$$$$$$$$$$$$@@@@########....oooo",
"OOOOXXXX    @@@@@@@@$$$$$$$$@@@@@@@@$$$$$$$$@@@@####....oooo++++",
"OOOOXXXX    @@@@@@@@$$$$$$$$@@@@@@@@$$$$$$$$@@@@####....oooo++++",
"OOOOXXXX    @@@@@@@@$$$$$$$$@@@@@@@@$$$$$$$$@@@@####....oooo++++",
"OOOOXXXX    @@@@@@@@$$$$$$$$@@@@@@@@$$$$$$$$@@@@####....oooo++++",
"OOOOOOOOXXXX    @@@@$$$$@@@@@@@@@@@@@@@@$$$$@@@@....oooo++++++++",
"OOOOOOOOXXXX    @@@@$$$$@@@@@@@@@@@@@@@@$$$$@@@@....oooo++++++++",
"OOOOOOOOXXXX    @@@@$$$$@@@@@@@@@@@@@@@@$$$$@@@@....oooo++++++++",
"OOOOOOOOXXXX    @@@@$$$$@@@@@@@@@@@@@@@@$$$$@@@@....oooo++++++++",
"OOOOOOOOOOOOXXXX    @@@@@@@@@@@@@@@@@@@@@@@@    oooo++++++++++++",
"OOOOOOOOOOOOXXXX    @@@@@@@@@@@@@@@@@@@@@@@@    oooo++++++++++++",
"OOOOOOOOOOOOXXXX    @@@@@@@@@@@@@@@@@@@@@@@@    oooo++++++++++++",
"OOOOOOOOOOOOXXXX    @@@@@@@@@@@@@@@@@@@@@@@@    oooo++++++++++++",
"OOOOOOOOOOOOOOOOXXXX                        XXXX++++++++++++++++",
"OOOOOOOOOOOOOOOOXXXX                        XXXX++++++++++++++++",
"OOOOOOOOOOOOOOOOXXXX                        XXXX++++++++++++++++",
"OOOOOOOOOOOOOOOOXXXX                        XXXX++++++++++++++++",
"OOOOOOOOOOOOOOOOOOOOOOOOOOOOOOOOOOOOOOOOOOOOOOOOOOOOOOOOOOOOOOOO"
};
