/* XPM */
static char *result[] = {
/* columns rows colors chars-per-pixel */
"64 64 7 1 ",
"  c gray16",
". c #B57B18",
"X c #EFBD18",
"o c #6B63BD",
"O c #949CE7",
"+ c white",
"@ c None",
/* pixels */
"@@@@@@@@@@            @@@@@@@@@@@@@@@@@@@@            @@@@@@@@@@",
"@@@@@@@@@@            @@@@@@@@@@@@@@@@@@@@            @@@@@@@@@@",
"@@@@@@@@@@            @@@@@@@@@@@@@@@@@@@@            @@@@@@@@@@",
"@@@@@@    ...XXXXXX...                    ...XXXXXX...    @@@@@@",
"@@@@@@    ...XXXXXX...                    ...XXXXXX...    @@@@@@",
"@@@@@@    ...XXXXXX...                    ...XXXXXX...    @@@@@@",
"@@@@@@    ......XXXXXX....   ......   ....XXXXXX......    @@@@@@",
"@@@@@@    ......XXXXXX....   ......   ....XXXXXX......    @@@@@@",
"@@@@@@       .............   ......   .............       @@@@@@",
"@@@@@@       .............   ......   .............       @@@@@@",
"@@@@@@       .............   ......   .............       @@@@@@",
"@@@@@@@@@@      ......    ............    ......      @@@@@@@@@@",
"@@@@@@@@@@      ......    ............    ......      @@@@@@@@@@",
"@@@@@@@@@@      ......    ............    ......      @@@@@@@@@@",
"@@@@@@@@@@   ooo      ....XXX......XXX....      ooo   @@@@@@@@@@",
"@@@@@@@@@@   ooo      ....XXX......XXX....      ooo   @@@@@@@@@@",
"@@@@@@@@@@   ooo      ....XXX......XXX....      ooo   @@@@@@@@@@",
"@@@@@@@@@@@@@      ..........XXXXXX..........      @@@@@@@@@@@@@",
"@@@@@@@@@@@@@      ..........XXXXXX..........      @@@@@@@@@@@@@",
"@@@@@@@@@@@@@   ......XXXX............XXXX......   @@@@@@@@@@@@@",
"@@@@@@@@@@@@@   ......XXXX............XXXX......   @@@@@@@@@@@@@",
"@@@@@@@@@@@@@   ......XXXX............XXXX......   @@@@@@@@@@@@@",
"@@@@@@@@@@@@@   ......XXXXXXXXXXXXXXXXXXXX......   @@@@@@@@@@@@@",
"@@@@@@@@@@@@@   ......XXXXXXXXXXXXXXXXXXXX......   @@@@@@@@@@@@@",
"@@@@@@@@@@@@@   ......XXXXXXXXXXXXXXXXXXXX......   @@@@@@@@@@@@@",
"@@@@@@@@@@@@@   ..........XXXXXXXXXXXX..........   @@@@@@@@@@@@@",
"@@@@@@@@@@@@@   ..........XXXXXXXXXXXX..........   @@@@@@@@@@@@@",
"@@@@@@@@@@@@@   ..........XXXXXXXXXXXX..........   @@@@@@@@@@@@@",
"@@@@@@@@@@   OOO   ..........................   OOO   @@@@@@@@@@",
"@@@@@@@@@@   OOO   ..........................   OOO   @@@@@@@@@@",
"@@@@@@@@@@   OOO   ..........................   OOO   @@@@@@@@@@",
"@@@@@@    OOOOOOooo       ............       oooOOOOOO    @@@@@@",
"@@@@@@    OOOOOOooo       ............       oooOOOOOO    @@@@@@",
"@@@@@@    OOOooo   oooOOOO            OOOOooo   oooOOO    @@@@@@",
"@@@@@@    OOOooo   oooOOOO            OOOOooo   oooOOO    @@@@@@",
"@@@@@@    OOOooo   oooOOOO            OOOOooo   oooOOO    @@@@@@",
"@@@@@@       ooo   oooOOOOOOOOOOOOOOOOOOOOooo   ooo       @@@@@@",
"@@@@@@       ooo   oooOOOOOOOOOOOOOOOOOOOOooo   ooo       @@@@@@",
"@@@@@@       ooo   oooOOOOOOOOOOOOOOOOOOOOooo   ooo       @@@@@@",
"@@@@@@    XXX      oooooooOOOOOOOOOOOOooooooo      XXX    @@@@@@",
"@@@@@@    XXX      oooooooOOOOOOOOOOOOooooooo      XXX    @@@@@@",
"@@@@@@    XXX      oooooooOOOOOOOOOOOOooooooo      XXX    @@@@@@",
"@@@@@@    +++XXX   ooooooooooOOOOOOoooooooooo   XXX+++    @@@@@@",
"@@@@@@    +++XXX   ooooooooooOOOOOOoooooooooo   XXX+++    @@@@@@",
"@@@@@@    +++XXX   ooooooooooOOOOOOoooooooooo   XXX+++    @@@@@@",
"@@@@@@@@@@            oooooooooooooooooooo            @@@@@@@@@@",
"@@@@@@@@@@            oooooooooooooooooooo            @@@@@@@@@@",
"@@@@@@@@@@@@@   ...       ooo      ooo       ...   @@@@@@@@@@@@@",
"@@@@@@@@@@@@@   ...       ooo      ooo       ...   @@@@@@@@@@@@@",
"@@@@@@@@@@@@@   ...       ooo      ooo       ...   @@@@@@@@@@@@@",
"@@@@@@@@@@@@@   XXXXXX....            ....XXXXXX   @@@@@@@@@@@@@",
"@@@@@@@@@@@@@   XXXXXX....            ....XXXXXX   @@@@@@@@@@@@@",
"@@@@@@@@@@@@@   XXXXXX....            ....XXXXXX   @@@@@@@@@@@@@",
"@@@@@@@@@@@@@                                      @@@@@@@@@@@@@",
"@@@@@@@@@@@@@                                      @@@@@@@@@@@@@",
"@@@@@@@@@@@@@                                      @@@@@@@@@@@@@",
"@@@@@@@@@@@@@                                      @@@@@@@@@@@@@",
"@@@@@@@@@@@@@                                      @@@@@@@@@@@@@",
"@@@@@@@@@@@@@@@@                                @@@@@@@@@@@@@@@@",
"@@@@@@@@@@@@@@@@                                @@@@@@@@@@@@@@@@",
"@@@@@@@@@@@@@@@@                                @@@@@@@@@@@@@@@@",
"@@@@@@@@@@@@@@@@@@@@@@                    @@@@@@@@@@@@@@@@@@@@@@",
"@@@@@@@@@@@@@@@@@@@@@@                    @@@@@@@@@@@@@@@@@@@@@@",
"@@@@@@@@@@@@@@@@@@@@@@                    @@@@@@@@@@@@@@@@@@@@@@"
};
