/* XPM */
static char *result[] = {
/* columns rows colors chars-per-pixel */
"64 64 7 1 ",
"  c gray16",
". c #B57B18",
"X c #EFBD18",
"o c #6B63BD",
"O c #949CE7",
"+ c white",
"@ c None",
/* pixels */
"@@@@@@@@@@            @@@@@@@@@@@@@@@@@@@@            @@@@@@@@@@",
"@@@@@@@@@@            @@@@@@@@@@@@@@@@@@@@            @@@@@@@@@@",
"@@@@@@@@@@            @@@@@@@@@@@@@@@@@@@@            @@@@@@@@@@",
"@@@@@@    ...XXXXXX...                    ...XXXXXX...    @@@@@@",
"@@@@@@    ...XXXXXX...                    ...XXXXXX...    @@@@@@",
"@@@@@@    ...XXXXXX...                    ...XXXXXX...    @@@@@@",
"@@@@@@    ......XXXXXX....   ......   ....XXXXXX......    @@@@@@",
"@@@@@@    ......XXXXXX....   ......   ....XXXXXX......    @@@@@@",
"@@@@@@       .............   ......   .............       @@@@@@",
"@@@@@@       .............   ......   .............       @@@@@@",
"@@@@@@       .............   ......   .............       @@@@@@",
"@@@@@@@@@@      ......    ............    ......      @@@@@@@@@@",
"@@@@@@@@@@      ......    ............    ......      @@@@@@@@@@",
"@@@@@@@@@@      ......    ............    ......      @@@@@@@@@@",
"@@@@@@@@@@   ooo      ....XXX......XXX....      ooo   @@@@@@@@@@",
"@@@@@@@@@@   ooo      ....XXX......XXX....      ooo   @@@@@@@@@@",
"@@@@@@@@@@   ooo      ....XXX......XXX....      ooo   @@@@@@@@@@",
"@@@@@@@@@@@@@      ..........XXXXXX..........      @@@@@@@@@@@@@",
"@@@@@@@@@@@@@      ..........XXXXXX..........      @@@@@@@@@@@@@",
"@@@@@@@@@@@@@   ......XXXX............XXXX......   @@@@@@@@@@@@@",
"@@@@@@@@@@@@@   ......XXXX............XXXX......   @@@@@@@@@@@@@",
"@@@@@@@@@@@@@   ......XXXX............XXXX......   @@@@@@@@@@@@@",
"@@@@@@@@@@@@@   ......XXXXXXXXXXXXXXXXXXXX......   @@@@@@@@@@@@@",
"@@@@@@@@@@@@@   ......XXXXXXXXXXXXXXXXXXXX......   @@@@@@@@@@@@@",
"@@@@@@@@@@@@@   ......XXXXXXXXXXXXXXXXXXXX......   @@@@@@@@@@@@@",
"@@@@@@@@@@@@@   ..........XXXXXXXXXXXX..........   @@@@@@@@@@@@@",
"@@@@@@@@@@@@@   ..........XXXXXXXXXXXX..........   @@@@@@@@@@@@@",
"@@@@@@@@@@@@@   ..........XXXXXXXXXXXX..........   @@@@@@@@@@@@@",
"@@@@@@@@@@@@@      ..........................   OOO   @@@@@@@@@@",
"@@@@@@@@@@@@@      ..........................   OOO   @@@@@@@@@@",
"@@@@@@@@@@@@@      ..........................   OOO   @@@@@@@@@@",
"@@@@@@@@@@   OOOooo       ............          oooOOO    @@@@@@",
"@@@@@@@@@@   OOOooo       ............          oooOOO    @@@@@@",
"@@@@@@    OOOooo   ooooooo            ooooooo   oooooo    @@@@@@",
"@@@@@@    OOOooo   ooooooo            ooooooo   oooooo    @@@@@@",
"@@@@@@    OOOooo   ooooooo            ooooooo   oooooo    @@@@@@",
"@@@@@@             ooooooooooooooooooooooooooooo      @@@@@@@@@@",
"@@@@@@             ooooooooooooooooooooooooooooo      @@@@@@@@@@",
"@@@@@@             ooooooooooooooooooooooooooooo      @@@@@@@@@@",
"@@@@@@    ++++++   oooOOOOooooooooooooOOOOoooooo   @@@@@@@@@@@@@",
"@@@@@@    ++++++   oooOOOOooooooooooooOOOOoooooo   @@@@@@@@@@@@@",
"@@@@@@    ++++++   oooOOOOooooooooooooOOOOoooooo   @@@@@@@@@@@@@",
"@@@@@@    XXXXXX   oooOOOOOOOOOOOOOOOOOOOOoooooo   @@@@@@@@@@@@@",
"@@@@@@    XXXXXX   oooOOOOOOOOOOOOOOOOOOOOoooooo   @@@@@@@@@@@@@",
"@@@@@@    XXXXXX   oooOOOOOOOOOOOOOOOOOOOOoooooo   @@@@@@@@@@@@@",
"@@@@@@@@@@      ooooooooooOOOOOOOOOOOOooooooo      @@@@@@@@@@@@@",
"@@@@@@@@@@      ooooooooooOOOOOOOOOOOOooooooo      @@@@@@@@@@@@@",
"@@@@@@@@@@@@@             oooOOO   ooooooo   ...   @@@@@@@@@@@@@",
"@@@@@@@@@@@@@             oooOOO   ooooooo   ...   @@@@@@@@@@@@@",
"@@@@@@@@@@@@@             oooOOO   ooooooo   ...   @@@@@@@@@@@@@",
"@@@@@@@@@@@@@   XXXXXX....   ooo                @@@@@@@@@@@@@@@@",
"@@@@@@@@@@@@@   XXXXXX....   ooo                @@@@@@@@@@@@@@@@",
"@@@@@@@@@@@@@   XXXXXX....   ooo                @@@@@@@@@@@@@@@@",
"@@@@@@@@@@@@@             ...                      @@@@@@@@@@@@@",
"@@@@@@@@@@@@@             ...                      @@@@@@@@@@@@@",
"@@@@@@@@@@@@@             ...                      @@@@@@@@@@@@@",
"@@@@@@@@@@@@@                                      @@@@@@@@@@@@@",
"@@@@@@@@@@@@@                                      @@@@@@@@@@@@@",
"@@@@@@@@@@@@@@@@                                @@@@@@@@@@@@@@@@",
"@@@@@@@@@@@@@@@@                                @@@@@@@@@@@@@@@@",
"@@@@@@@@@@@@@@@@                                @@@@@@@@@@@@@@@@",
"@@@@@@@@@@@@@@@@@@@@@@                    @@@@@@@@@@@@@@@@@@@@@@",
"@@@@@@@@@@@@@@@@@@@@@@                    @@@@@@@@@@@@@@@@@@@@@@",
"@@@@@@@@@@@@@@@@@@@@@@                    @@@@@@@@@@@@@@@@@@@@@@"
};
