/* XPM */
static char *result[] = {
/* columns rows colors chars-per-pixel */
"64 64 7 1 ",
"  c gray16",
". c #B57B18",
"X c #EFBD18",
"o c #6B63BD",
"O c #949CE7",
"+ c white",
"@ c None",
/* pixels */
"@@@@@@@@@@            @@@@@@@@@@@@@@@@@@@@            @@@@@@@@@@",
"@@@@@@@@@@            @@@@@@@@@@@@@@@@@@@@            @@@@@@@@@@",
"@@@@@@@@@@            @@@@@@@@@@@@@@@@@@@@            @@@@@@@@@@",
"@@@@@@    ...XXXXXX...                    ...XXXXXX...    @@@@@@",
"@@@@@@    ...XXXXXX...                    ...XXXXXX...    @@@@@@",
"@@@@@@    ...XXXXXX...                    ...XXXXXX...    @@@@@@",
"@@@@@@    ......XXXXXX....   ......   ....XXXXXX......    @@@@@@",
"@@@@@@    ......XXXXXX....   ......   ....XXXXXX......    @@@@@@",
"@@@@@@       .............   ......   .............       @@@@@@",
"@@@@@@       .............   ......   .............       @@@@@@",
"@@@@@@       .............   ......   .............       @@@@@@",
"@@@@@@@@@@      ......    ............    ......      @@@@@@@@@@",
"@@@@@@@@@@      ......    ............    ......      @@@@@@@@@@",
"@@@@@@@@@@      ......    ............    ......      @@@@@@@@@@",
"@@@@@@@@@@   ooo      ....XXX......XXX....      ooo   @@@@@@@@@@",
"@@@@@@@@@@   ooo      ....XXX......XXX....      ooo   @@@@@@@@@@",
"@@@@@@@@@@   ooo      ....XXX......XXX....      ooo   @@@@@@@@@@",
"@@@@@@@@@@@@@      ..........XXXXXX..........      @@@@@@@@@@@@@",
"@@@@@@@@@@@@@      ..........XXXXXX..........      @@@@@@@@@@@@@",
"@@@@@@@@@@@@@   ......XXXX............XXXX......   @@@@@@@@@@@@@",
"@@@@@@@@@@@@@   ......XXXX............XXXX......   @@@@@@@@@@@@@",
"@@@@@@@@@@@@@   ......XXXX............XXXX......   @@@@@@@@@@@@@",
"@@@@@@@@@@@@@   ......XXXXXXXXXXXXXXXXXXXX......   @@@@@@@@@@@@@",
"@@@@@@@@@@@@@   ......XXXXXXXXXXXXXXXXXXXX......   @@@@@@@@@@@@@",
"@@@@@@@@@@@@@   ......XXXXXXXXXXXXXXXXXXXX......   @@@@@@@@@@@@@",
"@@@@@@@@@@@@@   ..........XXXXXXXXXXXX..........   @@@@@@@@@@@@@",
"@@@@@@@@@@@@@   ..........XXXXXXXXXXXX..........   @@@@@@@@@@@@@",
"@@@@@@@@@@@@@   ..........XXXXXXXXXXXX..........   @@@@@@@@@@@@@",
"@@@@@@@@@@   OOO   ..........................      @@@@@@@@@@@@@",
"@@@@@@@@@@   OOO   ..........................      @@@@@@@@@@@@@",
"@@@@@@@@@@   OOO   ..........................      @@@@@@@@@@@@@",
"@@@@@@    OOOooo          ............       oooOOO   @@@@@@@@@@",
"@@@@@@    OOOooo          ............       oooOOO   @@@@@@@@@@",
"@@@@@@    oooooo   ooooooo            ooooooo   oooOOO    @@@@@@",
"@@@@@@    oooooo   ooooooo            ooooooo   oooOOO    @@@@@@",
"@@@@@@    oooooo   ooooooo            ooooooo   oooOOO    @@@@@@",
"@@@@@@@@@@      ooooooooooooooooooooooooooooo             @@@@@@",
"@@@@@@@@@@      ooooooooooooooooooooooooooooo             @@@@@@",
"@@@@@@@@@@      ooooooooooooooooooooooooooooo             @@@@@@",
"@@@@@@@@@@@@@   ooooooOOOOooooooooooooOOOOooo   ++++++    @@@@@@",
"@@@@@@@@@@@@@   ooooooOOOOooooooooooooOOOOooo   ++++++    @@@@@@",
"@@@@@@@@@@@@@   ooooooOOOOooooooooooooOOOOooo   ++++++    @@@@@@",
"@@@@@@@@@@@@@   ooooooOOOOOOOOOOOOOOOOOOOOooo   XXXXXX    @@@@@@",
"@@@@@@@@@@@@@   ooooooOOOOOOOOOOOOOOOOOOOOooo   XXXXXX    @@@@@@",
"@@@@@@@@@@@@@   ooooooOOOOOOOOOOOOOOOOOOOOooo   XXXXXX    @@@@@@",
"@@@@@@@@@@@@@      oooooooOOOOOOOOOOOOoooooooooo      @@@@@@@@@@",
"@@@@@@@@@@@@@      oooooooOOOOOOOOOOOOoooooooooo      @@@@@@@@@@",
"@@@@@@@@@@@@@   ...   ooooooo   OOOooo             @@@@@@@@@@@@@",
"@@@@@@@@@@@@@   ...   ooooooo   OOOooo             @@@@@@@@@@@@@",
"@@@@@@@@@@@@@   ...   ooooooo   OOOooo             @@@@@@@@@@@@@",
"@@@@@@@@@@@@@@@@                ooo   ....XXXXXX   @@@@@@@@@@@@@",
"@@@@@@@@@@@@@@@@                ooo   ....XXXXXX   @@@@@@@@@@@@@",
"@@@@@@@@@@@@@@@@                ooo   ....XXXXXX   @@@@@@@@@@@@@",
"@@@@@@@@@@@@@                      ...             @@@@@@@@@@@@@",
"@@@@@@@@@@@@@                      ...             @@@@@@@@@@@@@",
"@@@@@@@@@@@@@                      ...             @@@@@@@@@@@@@",
"@@@@@@@@@@@@@                                      @@@@@@@@@@@@@",
"@@@@@@@@@@@@@                                      @@@@@@@@@@@@@",
"@@@@@@@@@@@@@@@@                                @@@@@@@@@@@@@@@@",
"@@@@@@@@@@@@@@@@                                @@@@@@@@@@@@@@@@",
"@@@@@@@@@@@@@@@@                                @@@@@@@@@@@@@@@@",
"@@@@@@@@@@@@@@@@@@@@@@                    @@@@@@@@@@@@@@@@@@@@@@",
"@@@@@@@@@@@@@@@@@@@@@@                    @@@@@@@@@@@@@@@@@@@@@@",
"@@@@@@@@@@@@@@@@@@@@@@                    @@@@@@@@@@@@@@@@@@@@@@"
};
