/* XPM */
static char *result[] = {
/* columns rows colors chars-per-pixel */
"64 64 8 1 ",
"  c gray16",
". c #8C5208",
"X c #B57B18",
"o c #EFBD18",
"O c #6B63BD",
"+ c #949CE7",
"@ c white",
"# c None",
/* pixels */
"################################################################",
"################################################################",
"################################################################",
"##########            ####################            ##########",
"##########            ####################            ##########",
"##########            ####################            ##########",
"######    XXXXXXoooooo    ############    ooooooXXXXXX    ######",
"######    XXXXXXoooooo    ############    ooooooXXXXXX    ######",
"######          XXXooooooo            oooooooXXX          ######",
"######          XXXooooooo            oooooooXXX          ######",
"######          XXXooooooo            oooooooXXX          ######",
"######    OOO...   XXXXXXX   XXXXXX   XXXXXXX   ...OOO    ######",
"######    OOO...   XXXXXXX   XXXXXX   XXXXXXX   ...OOO    ######",
"######    OOO...   XXXXXXX   XXXXXX   XXXXXXX   ...OOO    ######",
"##########   +++...   XXXXXXXooooooXXXXXXX   ...+++   ##########",
"##########   +++...   XXXXXXXooooooXXXXXXX   ...+++   ##########",
"##########   +++...   XXXXXXXooooooXXXXXXX   ...+++   ##########",
"##########   +++OOO   XXXXooooooooooooXXXX   OOO+++   ##########",
"##########   +++OOO   XXXXooooooooooooXXXX   OOO+++   ##########",
"##########   OOO   XXXXXXXXXXooooooXXXXXXXXXX   OOO   ##########",
"##########   OOO   XXXXXXXXXXooooooXXXXXXXXXX   OOO   ##########",
"##########   OOO   XXXXXXXXXXooooooXXXXXXXXXX   OOO   ##########",
"#############   XXXXXX    XXXXXXXXXXXX    XXXXXX   #############",
"#############   XXXXXX    XXXXXXXXXXXX    XXXXXX   #############",
"#############   XXXXXX    XXXXXXXXXXXX    XXXXXX   #############",
"#############   XXXXXX@@@@   XXXXXX   @@@@XXXXXX   #############",
"#############   XXXXXX@@@@   XXXXXX   @@@@XXXXXX   #############",
"#############   XXXXXX@@@@   XXXXXX   @@@@XXXXXX   #############",
"##########      XXXXXXXXXX@@@XXXXXX@@@XXXXXXXXXX   #############",
"##########      XXXXXXXXXX@@@XXXXXX@@@XXXXXXXXXX   #############",
"##########      XXXXXXXXXX@@@XXXXXX@@@XXXXXXXXXX   #############",
"##########   +++      XXXXooooooooooooXXXX      +++   ##########",
"##########   +++      XXXXooooooooooooXXXX      +++   ##########",
"##########   OOOOOO       XXXooooooXXX    OOOOOOOOO+++    ######",
"##########   OOOOOO       XXXooooooXXX    OOOOOOOOO+++    ######",
"##########   OOOOOO       XXXooooooXXX    OOOOOOOOO+++    ######",
"#############      OOO++++   XXXXXX   ++++OOO             ######",
"#############      OOO++++   XXXXXX   ++++OOO             ######",
"#############      OOO++++   XXXXXX   ++++OOO             ######",
"################   OOO    @@@      @@@    OOO   @@@@@@    ######",
"################   OOO    @@@      @@@    OOO   @@@@@@    ######",
"################   OOO    @@@      @@@    OOO   @@@@@@    ######",
"################   OOO++++   @@@@@@   ++++OOO   oooooo    ######",
"################   OOO++++   @@@@@@   ++++OOO   oooooo    ######",
"################   OOO++++   @@@@@@   ++++OOO   oooooo    ######",
"#############      OOO    @@@      @@@    OOO         ##########",
"#############      OOO    @@@      @@@    OOO         ##########",
"#############   XXX   OOOO   ++++++   OOOO   XXX   #############",
"#############   XXX   OOOO   ++++++   OOOO   XXX   #############",
"#############   XXX   OOOO   ++++++   OOOO   XXX   #############",
"##########   oooXXXXXX    OOOOOOOOO             ################",
"##########   oooXXXXXX    OOOOOOOOO             ################",
"##########   oooXXXXXX    OOOOOOOOO             ################",
"##########   @@@ooooooXXXX                         #############",
"##########   @@@ooooooXXXX                         #############",
"##########   @@@ooooooXXXX                         #############",
"#############                                      #############",
"#############                                      #############",
"################                                ################",
"################                                ################",
"################                                ################",
"######################                    ######################",
"######################                    ######################",
"######################                    ######################"
};
