/* XPM */
static char *result[] = {
/* columns rows colors chars-per-pixel */
"64 64 8 1 ",
"  c gray16",
". c #8C5208",
"X c #B57B18",
"o c #EFBD18",
"O c #6B63BD",
"+ c #949CE7",
"@ c white",
"# c None",
/* pixels */
"################################################################",
"################################################################",
"################################################################",
"##########            ####################            ##########",
"##########            ####################            ##########",
"##########            ####################            ##########",
"######    XXXXXXoooooo    ############    ooooooXXXXXX    ######",
"######    XXXXXXoooooo    ############    ooooooXXXXXX    ######",
"######          XXXooooooo            oooooooXXX          ######",
"######          XXXooooooo            oooooooXXX          ######",
"######          XXXooooooo            oooooooXXX          ######",
"######    OOO...   XXXXXXX   XXXXXX   XXXXXXX   ...OOO    ######",
"######    OOO...   XXXXXXX   XXXXXX   XXXXXXX   ...OOO    ######",
"######    OOO...   XXXXXXX   XXXXXX   XXXXXXX   ...OOO    ######",
"##########   +++...   XXXXXXXooooooXXXXXXX   ...+++   ##########",
"##########   +++...   XXXXXXXooooooXXXXXXX   ...+++   ##########",
"##########   +++...   XXXXXXXooooooXXXXXXX   ...+++   ##########",
"##########   +++OOO   XXXXooooooooooooXXXX   OOO+++   ##########",
"##########   +++OOO   XXXXooooooooooooXXXX   OOO+++   ##########",
"##########   OOO   XXXXXXXXXXooooooXXXXXXXXXX   OOO   ##########",
"##########   OOO   XXXXXXXXXXooooooXXXXXXXXXX   OOO   ##########",
"##########   OOO   XXXXXXXXXXooooooXXXXXXXXXX   OOO   ##########",
"#############   XXXXXX    XXXXXXXXXXXX    XXXXXX   #############",
"#############   XXXXXX    XXXXXXXXXXXX    XXXXXX   #############",
"#############   XXXXXX    XXXXXXXXXXXX    XXXXXX   #############",
"#############   XXXXXX@@@@   XXXXXX   @@@@XXXXXX   #############",
"#############   XXXXXX@@@@   XXXXXX   @@@@XXXXXX   #############",
"#############   XXXXXX@@@@   XXXXXX   @@@@XXXXXX   #############",
"##########      XXXXXXXXXX@@@XXXXXX@@@XXXXXXXXXX      ##########",
"##########      XXXXXXXXXX@@@XXXXXX@@@XXXXXXXXXX      ##########",
"##########      XXXXXXXXXX@@@XXXXXX@@@XXXXXXXXXX      ##########",
"######    ++++++      XXXXooooooooooooXXXX      ++++++    ######",
"######    ++++++      XXXXooooooooooooXXXX      ++++++    ######",
"######    +++OOO   OOO    XXXooooooXXX    OOO   OOO+++    ######",
"######    +++OOO   OOO    XXXooooooXXX    OOO   OOO+++    ######",
"######    +++OOO   OOO    XXXooooooXXX    OOO   OOO+++    ######",
"######    OOOOOO   OOO       XXXXXX       OOO   OOOOOO    ######",
"######    OOOOOO   OOO       XXXXXX       OOO   OOOOOO    ######",
"######    OOOOOO   OOO       XXXXXX       OOO   OOOOOO    ######",
"######             OOO++++            ++++OOO             ######",
"######             OOO++++            ++++OOO             ######",
"######             OOO++++            ++++OOO             ######",
"######    @@@ooo   OOO    @@@      @@@    OOO   ooo@@@    ######",
"######    @@@ooo   OOO    @@@      @@@    OOO   ooo@@@    ######",
"######    @@@ooo   OOO    @@@      @@@    OOO   ooo@@@    ######",
"######    ooo   XXX   OOOO   ++++++   OOOO   XXX   ooo    ######",
"######    ooo   XXX   OOOO   ++++++   OOOO   XXX   ooo    ######",
"##########      oooXXX    OOOOOOOOOOOO    XXXooo      ##########",
"##########      oooXXX    OOOOOOOOOOOO    XXXooo      ##########",
"##########      oooXXX    OOOOOOOOOOOO    XXXooo      ##########",
"#############   @@@oooXXXX            XXXXooo@@@   #############",
"#############   @@@oooXXXX            XXXXooo@@@   #############",
"#############   @@@oooXXXX            XXXXooo@@@   #############",
"#############                                      #############",
"#############                                      #############",
"#############                                      #############",
"#############                                      #############",
"#############                                      #############",
"################                                ################",
"################                                ################",
"################                                ################",
"######################                    ######################",
"######################                    ######################",
"######################                    ######################"
};
