/* XPM */
static char *result[] = {
/* columns rows colors chars-per-pixel */
"64 64 15 1 ",
"  c #282828",
". c #C01820",
"X c #885828",
"o c #B86820",
"O c #F87800",
"+ c #509010",
"@ c #78B820",
"# c #389068",
"$ c #40D870",
"% c #E09050",
"& c #F0A068",
"* c #F0D840",
"= c #E860B0",
"- c #F8F8F8",
"; c None",
/* pixels */
";;;;;;;;;;;;;;;;;;;;;;;;;;;;;;;;;;;;;;;;;;;;;;;;;;;;;;;;;;;;;;;;",
";;;;;;;;;;;;;;;;;;;;;;;;;;;;;;;;;;;;;;;;;;;;;;;;;;;;;;;;;;;;;;;;",
";;;;;;;;;;;;;;;;;;;;;;;;;;;;;;;;;;;;;;;;;;;;;;;;;;;;;;;;;;;;;;;;",
";;;;;;;;;;;;;;;;;;;;;;;;;              ;;;;;;;;;;;;;;;;;;;;;;;;;",
";;;;;;;;;;;;;;;;;;;;;;;;;              ;;;;;;;;;;;;;;;;;;;;;;;;;",
";;;;;;;;;;;;;;;;;;;;;;;;;              ;;;;;;;;;;;;;;;;;;;;;;;;;",
";;;;;;;;;;;;;;;;;;;;;;;  +++++++@@@++++      ;;;;;;;;;;;;;;;;;;;",
";;;;;;;;;;;;;;;;;;;;;;;  +++++++@@@++++      ;;;;;;;;;;;;;;;;;;;",
";;;;;;;;;;;;;;;;;;;    ++++++@@@@@@@@@@@@++++   ;;;;;;;;;;;;;;;;",
";;;;;;;;;;;;;;;;;;;    ++++++@@@@@@@@@@@@++++   ;;;;;;;;;;;;;;;;",
";;;;;;;;;;;;;;;;;;;    ++++++@@@@@@@@@@@@++++   ;;;;;;;;;;;;;;;;",
";;;;;;;;;    ;;;       OO+++++++@@@++++OO    +++       ;;;;;;;;;",
";;;;;;;;;    ;;;       OO+++++++@@@++++OO    +++       ;;;;;;;;;",
";;;;;;;;;    ;;;       OO+++++++@@@++++OO    +++       ;;;;;;;;;",
";;;;;;;  &&&&   ===      OOOOOOOOOOOOOO      +++   &&&&  ;;;;;;;",
";;;;;;;  &&&&   ===      OOOOOOOOOOOOOO      +++   &&&&  ;;;;;;;",
";;;;;;;  &&&&   ===      OOOOOOOOOOOOOO      +++   &&&&  ;;;;;;;",
";;;;;;;  &&&&   =========              ======      &&&&  ;;;;;;;",
";;;;;;;  &&&&   =========              ======      &&&&  ;;;;;;;",
";;;;;;;  oooo&&&   ==========================   &&&oooo  ;;;;;;;",
";;;;;;;  oooo&&&   ==========================   &&&oooo  ;;;;;;;",
";;;;;;;  oooo&&&   ==========================   &&&oooo  ;;;;;;;",
";;;;;;;  oooo   ===                          ===   oooo  ;;;;;;;",
";;;;;;;  oooo   ===                          ===   oooo  ;;;;;;;",
";;;;;;;  oooo   ===                          ===   oooo  ;;;;;;;",
";;;;;;;;;    ooo   oooo------oooooo------oooo   ooo    ;;;;;;;;;",
";;;;;;;;;    ooo   oooo------oooooo------oooo   ooo    ;;;;;;;;;",
";;;;;;;;;    ooo   oooo------oooooo------oooo   ooo    ;;;;;;;;;",
";;;;;;;;;;;;;   ooooooo--    &&&&&&    --ooooooo   ;;;;;;;;;;;;;",
";;;;;;;;;;;;;   ooooooo--    &&&&&&    --ooooooo   ;;;;;;;;;;;;;",
";;;;;;;;;;;;;   ooooooo--    &&&&&&    --ooooooo   ;;;;;;;;;;;;;",
";;;;;;;;;;;;;      oooo&&    &&&&&&    &&oooo      ;;;;;;;;;;;;;",
";;;;;;;;;;;;;      oooo&&    &&&&&&    &&oooo      ;;;;;;;;;;;;;",
";;;;;;;;;    $$$###    oo&&&&&&&&&&&&&&oo    ###$$$    ;;;;;;;;;",
";;;;;;;;;    $$$###    oo&&&&&&&&&&&&&&oo    ###$$$    ;;;;;;;;;",
";;;;;;;;;    $$$###    oo&&&&&&&&&&&&&&oo    ###$$$    ;;;;;;;;;",
";;;;;;;  XXXX   #######      oooooo      #######   XXXX  ;;;;;;;",
";;;;;;;  XXXX   #######      oooooo      #######   XXXX  ;;;;;;;",
";;;;;;;  XXXX   #######      oooooo      #######   XXXX  ;;;;;;;",
";;;;;;;  XXXXXXX   ####$$####      ####$$####   XXXXXXX  ;;;;;;;",
";;;;;;;  XXXXXXX   ####$$####      ####$$####   XXXXXXX  ;;;;;;;",
";;;;;;;  XXXXXXX   ####$$####      ####$$####   XXXXXXX  ;;;;;;;",
";;;;;;;  %%%%      ######$$$$$$$$$$$$$$$$####      %%%%  ;;;;;;;",
";;;;;;;  %%%%      ######$$$$$$$$$$$$$$$$####      %%%%  ;;;;;;;",
";;;;;;;  %%%%      ######$$$$$$$$$$$$$$$$####      %%%%  ;;;;;;;",
";;;;;;;  %%%%%%%   ##########$$$$$$##########   %%%%%%%  ;;;;;;;",
";;;;;;;  %%%%%%%   ##########$$$$$$##########   %%%%%%%  ;;;;;;;",
";;;;;;;  %%%%   ###******    ******    ******###   %%%%  ;;;;;;;",
";;;;;;;  %%%%   ###******    ******    ******###   %%%%  ;;;;;;;",
";;;;;;;  %%%%   ###******    ******    ******###   %%%%  ;;;;;;;",
";;;;;;;;;          ######**************######          ;;;;;;;;;",
";;;;;;;;;          ######**************######          ;;;;;;;;;",
";;;;;;;;;          ######**************######          ;;;;;;;;;",
";;;;;;;;;;;;;   ...      ##############      ...   ;;;;;;;;;;;;;",
";;;;;;;;;;;;;   ...      ##############      ...   ;;;;;;;;;;;;;",
";;;;;;;;;;;;;   ...      ##############      ...   ;;;;;;;;;;;;;",
";;;;;;;;;;;;;      OOOO..              ..OOOO      ;;;;;;;;;;;;;",
";;;;;;;;;;;;;      OOOO..              ..OOOO      ;;;;;;;;;;;;;",
";;;;;;;;;;;;;;;;                                ;;;;;;;;;;;;;;;;",
";;;;;;;;;;;;;;;;                                ;;;;;;;;;;;;;;;;",
";;;;;;;;;;;;;;;;                                ;;;;;;;;;;;;;;;;",
";;;;;;;;;;;;;;;;;;;;;;;                  ;;;;;;;;;;;;;;;;;;;;;;;",
";;;;;;;;;;;;;;;;;;;;;;;                  ;;;;;;;;;;;;;;;;;;;;;;;",
";;;;;;;;;;;;;;;;;;;;;;;                  ;;;;;;;;;;;;;;;;;;;;;;;"
};
