/* XPM */
static char *result[] = {
/* columns rows colors chars-per-pixel */
"64 64 15 1 ",
"  c #282828",
". c #C01820",
"X c #885828",
"o c #B86820",
"O c #F87800",
"+ c #509010",
"@ c #78B820",
"# c #389068",
"$ c #40D870",
"% c #E09050",
"& c #F0A068",
"* c #F0D840",
"= c #E860B0",
"- c #F8F8F8",
"; c None",
/* pixels */
";;;;;;;;;;;;;;;;;;;;;;;;;;;;;;;;;;;;;;;;;;;;;;;;;;;;;;;;;;;;;;;;",
";;;;;;;;;;;;;;;;;;;;;;;;;;;;;;;;;;;;;;;;;;;;;;;;;;;;;;;;;;;;;;;;",
";;;;;;;;;;;;;;;;;;;;;;;;;;;;;;;;;;;;;;;;;;;;;;;;;;;;;;;;;;;;;;;;",
";;;;;;;;;;;;;;;;;;;;;;;;;      ;;;;;;;;;;;;;;;;;;;;;;;;;;;;;;;;;",
";;;;;;;;;;;;;;;;;;;;;;;;;      ;;;;;;;;;;;;;;;;;;;;;;;;;;;;;;;;;",
";;;;;;;;;;;;;;;;;;;;;;;;;      ;;;;;;;;;;;;;;;;;;;;;;;;;;;;;;;;;",
";;;;;;;;;;;;;;;;;;;;;;   &&&&&&  ;;;;;;;;;;;;;;;;;;;;;;;;;;;;;;;",
";;;;;;;;;;;;;;;;;;;;;;   &&&&&&  ;;;;;;;;;;;;;;;;;;;;;;;;;;;;;;;",
";;;;;;;;;;;                 ooo  ;;;;;;;;;;;;;;;;;;;;;;;;;;;;;;;",
";;;;;;;;;;;                 ooo  ;;;;;;;;;;;;;;;;;;;;;;;;;;;;;;;",
";;;;;;;;;;;                 ooo  ;;;;;;;;;;;;;;;;;;;;;;;;;;;;;;;",
";;;;;;;;   +++@@@OO      ===   &&   ;;;;;;;;;     ;;;;;;;;;;;;;;",
";;;;;;;;   +++@@@OO      ===   &&   ;;;;;;;;;     ;;;;;;;;;;;;;;",
";;;;;;;;   +++@@@OO      ===   &&   ;;;;;;;;;     ;;;;;;;;;;;;;;",
";;;;;;  +++@@@OOO  ============  ooo   ;;;   %%%%%   ;;;;;;;;;;;",
";;;;;;  +++@@@OOO  ============  ooo   ;;;   %%%%%   ;;;;;;;;;;;",
";;;;;;  +++@@@OOO  ============  ooo   ;;;   %%%%%   ;;;;;;;;;;;",
";;;;;;  +++OOO   =====         &&            %%%%%   ;;;;;;;;;;;",
";;;;;;  +++OOO   =====         &&            %%%%%   ;;;;;;;;;;;",
";;;;;;  OOO   ========   ooo---oo&&&   XXXXXX     ;;;;;;;;;;;;;;",
";;;;;;  OOO   ========   ooo---oo&&&   XXXXXX     ;;;;;;;;;;;;;;",
";;;;;;  OOO   ========   ooo---oo&&&   XXXXXX     ;;;;;;;;;;;;;;",
";;;;;;     ========   ooo---   --&&&   XXXXXXXX   ;;;;;;;;;;;;;;",
";;;;;;     ========   ooo---   --&&&   XXXXXXXX   ;;;;;;;;;;;;;;",
";;;;;;     ========   ooo---   --&&&   XXXXXXXX   ;;;;;;;;;;;;;;",
";;;        ===     ------ooo---oo&&&      XXX  ;;;;;;;;;;;;;;;;;",
";;;        ===     ------ooo---oo&&&      XXX  ;;;;;;;;;;;;;;;;;",
";;;        ===     ------ooo---oo&&&      XXX  ;;;;;;;;;;;;;;;;;",
"   &&&  ======   --      ---ooo  ...   ###   ;;;;;;;;;;;;;;;;;;;",
"   &&&  ======   --      ---ooo  ...   ###   ;;;;;;;;;;;;;;;;;;;",
"   &&&  ======   --      ---ooo  ...   ###   ;;;;;;;;;;;;;;;;;;;",
"   &&&oo   ===   --      ---   ..   #########     ;;;;;;;;;;;;;;",
"   &&&oo   ===   --      ---   ..   #########     ;;;;;;;;;;;;;;",
";;;     ooo   ooooo------   .....   ###$$$$$$$$###        ;;;;;;",
";;;     ooo   ooooo------   .....   ###$$$$$$$$###        ;;;;;;",
";;;     ooo   ooooo------   .....   ###$$$$$$$$###        ;;;;;;",
";;;;;;;;   ooo   oooooooo...     ###$$$$$$$$$#####   OOO..   ;;;",
";;;;;;;;   ooo   oooooooo...     ###$$$$$$$$$#####   OOO..   ;;;",
";;;;;;;;   ooo   oooooooo...     ###$$$$$$$$$#####   OOO..   ;;;",
";;;;;;;;;;;                 #####$$$$$$$$$$$$##   ......     ;;;",
";;;;;;;;;;;                 #####$$$$$$$$$$$$##   ......     ;;;",
";;;;;;;;;;;                 #####$$$$$$$$$$$$##   ......     ;;;",
";;;;;;;;;;;;;;   XXXXX   ###########$$$########   ...        ;;;",
";;;;;;;;;;;;;;   XXXXX   ###########$$$########   ...        ;;;",
";;;;;;;;;;;;;;   XXXXX   ###########$$$########   ...        ;;;",
";;;;;;;;;;;      XXXXXXXX   ########   ******##   ...     ;;;;;;",
";;;;;;;;;;;      XXXXXXXX   ########   ******##   ...     ;;;;;;",
";;;;;;;;   %%%%%%  XXX   ;;;   ********######           ;;;;;;;;",
";;;;;;;;   %%%%%%  XXX   ;;;   ********######           ;;;;;;;;",
";;;;;;;;   %%%%%%  XXX   ;;;   ********######           ;;;;;;;;",
";;;;;;;;   %%%%%%     ;;;;;;   ########        ;;;;;;;;;;;;;;;;;",
";;;;;;;;   %%%%%%     ;;;;;;   ########        ;;;;;;;;;;;;;;;;;",
";;;;;;;;   %%%%%%     ;;;;;;   ########        ;;;;;;;;;;;;;;;;;",
";;;;;;;;;;;      ;;;;;;;;;;;;;;        ooo...  ;;;;;;;;;;;;;;;;;",
";;;;;;;;;;;      ;;;;;;;;;;;;;;        ooo...  ;;;;;;;;;;;;;;;;;",
";;;;;;;;;;;      ;;;;;;;;;;;;;;        ooo...  ;;;;;;;;;;;;;;;;;",
";;;;;;;;;;;;;;;;;;;;;;;;;;;;;;;;;   .........  ;;;;;;;;;;;;;;;;;",
";;;;;;;;;;;;;;;;;;;;;;;;;;;;;;;;;   .........  ;;;;;;;;;;;;;;;;;",
";;;;;;;;;;;;;;;;;;;;;;;;;;;;;;;;;;;;         ;;;;;;;;;;;;;;;;;;;",
";;;;;;;;;;;;;;;;;;;;;;;;;;;;;;;;;;;;         ;;;;;;;;;;;;;;;;;;;",
";;;;;;;;;;;;;;;;;;;;;;;;;;;;;;;;;;;;         ;;;;;;;;;;;;;;;;;;;",
";;;;;;;;;;;;;;;;;;;;;;;;;;;;;;;;;;;;;;;;;;;;;;;;;;;;;;;;;;;;;;;;",
";;;;;;;;;;;;;;;;;;;;;;;;;;;;;;;;;;;;;;;;;;;;;;;;;;;;;;;;;;;;;;;;",
";;;;;;;;;;;;;;;;;;;;;;;;;;;;;;;;;;;;;;;;;;;;;;;;;;;;;;;;;;;;;;;;"
};
