/* XPM */
static char *_83735ec687344f2eb1384ec639070b8MlvLUfhT6qU4PmNB[] = {
/* columns rows colors chars-per-pixel */
"64 64 5 1 ",
"  c #282828",
". c #285830",
"X c #605030",
"o c #407840",
"O c #489848",
/* pixels */
"OOOOOOOOooooooooOOOOooooooooOOOOOOOOooooooooOOOOooooooooOOOOOOOO",
"OOOOOOOOooooooooOOOOooooooooOOOOOOOOooooooooOOOOooooooooOOOOOOOO",
"OOOOOOOOooooooooOOOOooooooooOOOOOOOOooooooooOOOOooooooooOOOOOOOO",
"OOOOOOOOooooooooOOOOooooooooOOOOOOOOooooooooOOOOooooooooOOOOOOOO",
"OOOOOOOO    oooooooo        ........        oooooooo    OOOOOOOO",
"OOOOOOOO    oooooooo        ........        oooooooo    OOOOOOOO",
"OOOOOOOO    oooooooo        ........        oooooooo    OOOOOOOO",
"OOOOOOOO    oooooooo        ........        oooooooo    OOOOOOOO",
"ooooOOOO                XXXX        XXXX                OOOOoooo",
"ooooOOOO                XXXX        XXXX                OOOOoooo",
"ooooOOOO                XXXX        XXXX                OOOOoooo",
"ooooOOOO                XXXX        XXXX                OOOOoooo",
"oooooooo    XXXXXXXXXXXXXXXXXXXXXXXXXXXXXXXXXXXXXXXX    oooooooo",
"oooooooo    XXXXXXXXXXXXXXXXXXXXXXXXXXXXXXXXXXXXXXXX    oooooooo",
"oooooooo    XXXXXXXXXXXXXXXXXXXXXXXXXXXXXXXXXXXXXXXX    oooooooo",
"oooooooo    XXXXXXXXXXXXXXXXXXXXXXXXXXXXXXXXXXXXXXXX    oooooooo",
"oooo    XXXXXXXXXXXX                        XXXXXXXXXXXX    oooo",
"oooo    XXXXXXXXXXXX                        XXXXXXXXXXXX    oooo",
"oooo    XXXXXXXXXXXX                        XXXXXXXXXXXX    oooo",
"oooo    XXXXXXXXXXXX                        XXXXXXXXXXXX    oooo",
"        XXXX                                        XXXX        ",
"        XXXX                                        XXXX        ",
"        XXXX                                        XXXX        ",
"        XXXX                                        XXXX        ",
"oooo    XXXX                                        XXXX    oooo",
"oooo    XXXX                                        XXXX    oooo",
"oooo    XXXX                                        XXXX    oooo",
"oooo    XXXX                                        XXXX    oooo",
"oooo                                                        oooo",
"oooo                                                        oooo",
"oooo                                                        oooo",
"oooo                                                        oooo",
"oooo                                                        oooo",
"oooo                                                        oooo",
"oooo                                                        oooo",
"oooo                                                        oooo",
"                                                                ",
"                                                                ",
"                                                                ",
"                                                                ",
"oooo                                                        oooo",
"oooo                                                        oooo",
"oooo                                                        oooo",
"oooo                                                        oooo",
"oooo                                                        oooo",
"oooo                                                        oooo",
"oooo                                                        oooo",
"oooo                                                        oooo",
"                                                                ",
"                                                                ",
"                                                                ",
"                                                                ",
"OOOO                                                        OOOO",
"OOOO                                                        OOOO",
"OOOO                                                        OOOO",
"OOOO                                                        OOOO",
"OOOOoooo                                                ooooOOOO",
"OOOOoooo                                                ooooOOOO",
"OOOOoooo                                                ooooOOOO",
"OOOOoooo                                                ooooOOOO",
"OOOOOOOOoooooooo    oooooooo        oooooooo    ooooooooOOOOOOOO",
"OOOOOOOOoooooooo    oooooooo        oooooooo    ooooooooOOOOOOOO",
"OOOOOOOOoooooooo    oooooooo        oooooooo    ooooooooOOOOOOOO",
"OOOOOOOOoooooooo    oooooooo        oooooooo    ooooooooOOOOOOOO"
};
