/* XPM */
static char *result[] = {
/* columns rows colors chars-per-pixel */
"64 64 4 1 ",
"  c #285828",
". c #489848",
"X c #508070",
"o c #B0E8B8",
/* pixels */
"................................................................",
"................................................................",
"................................................................",
"................................................................",
"................................................................",
"................................................................",
"................................................................",
"................................................................",
"................................................................",
"................................................................",
"................................................................",
"................................................................",
"................................................................",
"................................................................",
"................................................................",
"................................................................",
"................................................................",
"................................................................",
"................................................................",
"................................................................",
"............oooooooooooo........................................",
"............oooooooooooo........................................",
"............oooooooooooo........................................",
"............oooooooooooo........................................",
"....oooo....oooooooooooo....oooo................................",
"....oooo....oooooooooooo....oooo................................",
"....oooo....oooooooooooo....oooo................................",
"....oooo....oooooooooooo....oooo................................",
"....ooooooooXXXXXXXXXXXXoooooooo................................",
"....ooooooooXXXXXXXXXXXXoooooooo................................",
"....ooooooooXXXXXXXXXXXXoooooooo................................",
"....ooooooooXXXXXXXXXXXXoooooooo................................",
"....    ooooXXXXXXXXXXXXoooo    ................................",
"....    ooooXXXXXXXXXXXXoooo    ................................",
"....    ooooXXXXXXXXXXXXoooo    ................................",
"....    ooooXXXXXXXXXXXXoooo    ................................",
"....        oooooooooooo        ................................",
"....        oooooooooooo        ................................",
"....        oooooooooooo        ................................",
"....        oooooooooooo        ................................",
"............            ........................................",
"............            ........................................",
"............            ........................................",
"............            ........................................",
"................................................................",
"................................................................",
"................................................................",
"................................................................",
"................................................................",
"................................................................",
"................................................................",
"................................................................",
"................................................................",
"................................................................",
"................................................................",
"................................................................",
"................................................................",
"................................................................",
"................................................................",
"................................................................",
"................................................................",
"................................................................",
"................................................................",
"................................................................"
};
