/* XPM */
static char *_b2c7b9c57a94456e5f95a303c75e18cQufCCEVi9MRO50JS[] = {
/* columns rows colors chars-per-pixel */
"64 64 4 1 ",
"  c #285828",
". c #489848",
"X c #508070",
"o c #B0E8B8",
/* pixels */
"................................................................",
"................................................................",
"................................................................",
"................................................................",
"................................................................",
"................................................................",
"................................................................",
"................................................................",
"................................................................",
"................................................................",
"................................................................",
"................................................................",
"................................................................",
"................................................................",
"................................................................",
"................................................................",
"................................................................",
"................................................................",
"................................................................",
"................................................................",
"............oooooooooooo........................................",
"............oooooooooooo........................................",
"............oooooooooooo........................................",
"............oooooooooooo........................................",
"............oooooooooooo........................................",
"............oooooooooooo........................................",
"............oooooooooooo........................................",
"............oooooooooooo........................................",
"....ooooooooXXXXXXXXXXXXoooooooo................................",
"....ooooooooXXXXXXXXXXXXoooooooo................................",
"....ooooooooXXXXXXXXXXXXoooooooo................................",
"....ooooooooXXXXXXXXXXXXoooooooo................................",
"....ooooooooXXXXXXXXXXXXoooooooo................................",
"....ooooooooXXXXXXXXXXXXoooooooo................................",
"....ooooooooXXXXXXXXXXXXoooooooo................................",
"....ooooooooXXXXXXXXXXXXoooooooo................................",
"....        oooooooooooo        ................................",
"....        oooooooooooo        ................................",
"....        oooooooooooo        ................................",
"....        oooooooooooo        ................................",
"....        oooooooooooo        ................................",
"....        oooooooooooo        ................................",
"....        oooooooooooo        ................................",
"....        oooooooooooo        ................................",
"............            ........................................",
"............            ........................................",
"............            ........................................",
"............            ........................................",
"................................................................",
"................................................................",
"................................................................",
"................................................................",
"................................................................",
"................................................................",
"................................................................",
"................................................................",
"................................................................",
"................................................................",
"................................................................",
"................................................................",
"................................................................",
"................................................................",
"................................................................",
"................................................................"
};
