/* XPM */
static char *_4d1bd0e42df4b0bd621e99a8ed731dcJQXLevFZlePAXN3i[] = {
/* columns rows colors chars-per-pixel */
"64 64 3 1 ",
"  c #5F4F2F",
". c #489848",
"X c #A08F5F",
/* pixels */
"................................................................",
"................................................................",
"................................................................",
"................................................................",
"................................................................",
"................................................................",
"................................................................",
"................................................................",
"................................................................",
"................................................................",
"................................................................",
"................................................................",
"................................................................",
"................................................................",
"................................................................",
"................................................................",
"................................................................",
"................................................................",
"................................................................",
"................................................................",
"................................................................",
"................................................................",
"................................................................",
"................................................................",
"................................................................",
"................................................................",
"................................................................",
"................................................................",
"................................................................",
"................................................................",
"................................................................",
"................................................................",
"....................                ............................",
"....................                ............................",
"....................                ............................",
"....................                ............................",
"............        XXXX            ............................",
"............        XXXX            ............................",
"............        XXXX            ............................",
"............        XXXX            ............................",
"........    XXXXXXXX    XXXX    ................................",
"........    XXXXXXXX    XXXX    ................................",
"........    XXXXXXXX    XXXX    ................................",
"........    XXXXXXXX    XXXX    ................................",
"........    XXXX    XXXXXXXX    ................................",
"........    XXXX    XXXXXXXX    ................................",
"........    XXXX    XXXXXXXX    ................................",
"........    XXXX    XXXXXXXX    ................................",
"....            XXXXXXXXXXXX    ................................",
"....            XXXXXXXXXXXX    ................................",
"....            XXXXXXXXXXXX    ................................",
"....            XXXXXXXXXXXX    ................................",
"....    XXXXXXXXXXXXXXXX    ....................................",
"....    XXXXXXXXXXXXXXXX    ....................................",
"....    XXXXXXXXXXXXXXXX    ....................................",
"....    XXXXXXXXXXXXXXXX    ....................................",
"....                    ........................................",
"....                    ........................................",
"....                    ........................................",
"....                    ........................................",
"................................................................",
"................................................................",
"................................................................",
"................................................................"
};
