
/* XPM */
static char *result[] = {
/* columns rows colors chars-per-pixel */
"64 64 7 1 ",
"  c #282828",
". c #D86060",
"X c #F0A068",
"o c #5070C8",
"O c #B090F8",
"+ c #F8F8F8",
"@ c None",
/* pixels */
"@@@@@@@@@@@@@@@@@@@@@@@@@@@@@@@@@@@@@@@      @@@@@@@@@@@@@@@@@@@",
"@@@@@@@@@@@@@@@@@@@@@@@@@@@@@@@@@@@@@@@      @@@@@@@@@@@@@@@@@@@",
"@@@@@@@@@@@@@@@@@@@@@@@@@@@@@@@@@@@@@@@      @@@@@@@@@@@@@@@@@@@",
"@@@@@@@@@@@@@@@@@@@@@@@@@@@@@@@@@@@@            @@@@@@@@@@@@@@@@",
"@@@@@@@@@@@@@@@@@@@@@@@@@@@@@@@@@@@@            @@@@@@@@@@@@@@@@",
"@@@@@@@@@@@@@@@@@@@@@@@@@@@@@@@@@@@@            @@@@@@@@@@@@@@@@",
"@@@@@@@@@@@@@@@@@@@@@@@@@@@@@@@@@@@@   OOOOOO   @@@@@@@@@@@@@@@@",
"@@@@@@@@@@@@@@@@@@@@@@@@@@@@@@@@@@@@   OOOOOO   @@@@@@@@@@@@@@@@",
"@@@@@@@@@@@@@@@@@@@@@@@@@@@@@@@@@@@@   OOOOOO   @@@@@@@@@@@@@@@@",
"@@@@@@@@@@@@@@@@@@@@@@@@@@@@@@@@@@@@   OOO+++   @@@@@@@@@@@@@@@@",
"@@@@@@@@@@@@@@@@@@@@@@@@@@@@@@@@@@@@   OOO+++   @@@@@@@@@@@@@@@@",
"@@@@@@@@@@@@@@@@@@@@@@@@@@@@@@@@@@@@   OOO+++   @@@@@@@@@@@@@@@@",
"@@@@@@@@@@@@@@@@@@@@@@@@@@@@@@@@@@@@   oooOOO   @@@@@@@@@@@@@@@@",
"@@@@@@@@@@@@@@@@@@@@@@@@@@@@@@@@@@@@   oooOOO   @@@@@@@@@@@@@@@@",
"@@@@@@@@@@@@@@@@@@@@@@@@@@@@@@@@@@@@   oooOOO   @@@@@@@@@@@@@@@@",
"@@@@@@@@@@@@@@@@@@@@@@@@@@@@@@@@@@@@   oooOOO   @@@@@@@@@@@@@@@@",
"@@@@@@@@@@@@@@@@@@@@@@@@@@@@@@@@@@@@   oooOOO   @@@@@@@@@@@@@@@@",
"@@@@@@@@@@@@@@@@@@@@@@@@@@@@@@@        oooOOO         @@@@@@@@@@",
"@@@@@@@@@@@@@@@@@@@@@@@@@@@@@@@        oooOOO         @@@@@@@@@@",
"@@@@@@@@@@@@@@@@@@@@@@@@@@@@@@@        oooOOO         @@@@@@@@@@",
"@@@@@@@@@@@@@@@@@@@@@@@@@@@@   OOO  oooooooooooo   OOO   @@@@@@@",
"@@@@@@@@@@@@@@@@@@@@@@@@@@@@   OOO  oooooooooooo   OOO   @@@@@@@",
"@@@@@@@@@@@@@@@@@@@@@@@@@@@@   OOO  oooooooooooo   OOO   @@@@@@@",
"@@@@@@@@@@@@@@@@@@@@@@@@@@@@   OOOoo   oooooo   oooOOO   @@@@@@@",
"@@@@@@@@@@@@@@@@@@@@@@@@@@@@   OOOoo   oooooo   oooOOO   @@@@@@@",
"@@@@@@@@@@@@@@@@@@@@@@@@@@@@   OOOoo   oooooo   oooOOO   @@@@@@@",
"@@@@@@@@@@@@@@@@@@@@@@@@@@@@   ooo  ...      ...   ooo   @@@@@@@",
"@@@@@@@@@@@@@@@@@@@@@@@@@@@@   ooo  ...      ...   ooo   @@@@@@@",
"@@@@@@@@@@@@@@@@@@@@@@@@@@@@   ooo  ...      ...   ooo   @@@@@@@",
"@@@@@@@@@@@@@@@@@@@@@@@@@@@@   ooo  ...XXX+++...   ooo   @@@@@@@",
"@@@@@@@@@@@@@@@@@@@@@@@@@@@@   ooo  ...XXX+++...   ooo   @@@@@@@",
"@@@@@@@@@@@@@@@@@@@@@@@@@@@@   ooo  ...XXX+++...   ooo   @@@@@@@",
"@@@@@@@@@@@@@@@@@@@@@@@@@@@@   ooo@@   ......   @@@ooo   @@@@@@@",
"@@@@@@@@@@@@@@@@@@@@@@@@@@@@   ooo@@   ......   @@@ooo   @@@@@@@",
"@@@@@@@@@@@@@@@@@@@@@@@@@@@@   ooo@@   ......   @@@ooo   @@@@@@@",
"@@@@@@@@@@@@@@@@@@@@@@@@@@@@@@@   @@            @@@   @@@@@@@@@@",
"@@@@@@@@@@@@@@@@@@@@@@@@@@@@@@@   @@            @@@   @@@@@@@@@@",
"@@@@@@@@@@@@@@@@@@@@@@@@@@@@@@@   @@            @@@   @@@@@@@@@@",
"@@@@@@@@@@@@@@@@@@@@@@@@@@@@@@@@@@@@   OOOXXX   @@@@@@@@@@@@@@@@",
"@@@@@@@@@@@@@@@@@@@@@@@@@@@@@@@@@@@@   OOOXXX   @@@@@@@@@@@@@@@@",
"@@@@@@@@@@@@@@@@@@@@@@@@@@@@@@@@@@@@   OOOXXX   @@@@@@@@@@@@@@@@",
"@@@@@@@@@@@@@@@@@@@@@@@@@@@@@@@@@@@@   XXX+++   @@@@@@@@@@@@@@@@",
"@@@@@@@@@@@@@@@@@@@@@@@@@@@@@@@@@@@@   XXX+++   @@@@@@@@@@@@@@@@",
"@@@@@@@@@@@@@@@@@@@@@@@@@@@@@@@@@@@@   XXX+++   @@@@@@@@@@@@@@@@",
"@@@@@@@@@@@@@@@@@@@@@@@@@@@@@@@@@@@@   ++++++   @@@@@@@@@@@@@@@@",
"@@@@@@@@@@@@@@@@@@@@@@@@@@@@@@@@@@@@   ++++++   @@@@@@@@@@@@@@@@",
"@@@@@@@@@@@@@@@@@@@@@@@@@@@@@@@@@@@@   ++++++   @@@@@@@@@@@@@@@@",
"@@@@@@@@@@@@@            @@@@@@@@@@@   +++OOO   @@@@@@@@@@@@@@@@",
"@@@@@@@@@@@@@            @@@@@@@@@@@   +++OOO   @@@@@@@@@@@@@@@@",
"@@@@@@@@@@@@@@@@                  @@   OOOOOO   @@@@@@@@@@@@@@@@",
"@@@@@@@@@@@@@@@@                  @@   OOOOOO   @@@@@@@@@@@@@@@@",
"@@@@@@@@@@@@@@@@                  @@   OOOOOO   @@@@@@@@@@@@@@@@",
"@@@@@@@@@@@@@@@@@@@@@@                 OOO+++   @@@@@@@@@@@@@@@@",
"@@@@@@@@@@@@@@@@@@@@@@                 OOO+++   @@@@@@@@@@@@@@@@",
"@@@@@@@@@@@@@@@@@@@@@@                 OOO+++   @@@@@@@@@@@@@@@@",
"@@@@@@@@@@@@@@@@@@@@@@@@@@@@           XXX+++   @@@@@@@@@@@@@@@@",
"@@@@@@@@@@@@@@@@@@@@@@@@@@@@           XXX+++   @@@@@@@@@@@@@@@@",
"@@@@@@@@@@@@@@@@@@@@@@@@@@@@           XXX+++   @@@@@@@@@@@@@@@@",
"@@@@@@@@@@@@@@@@@@@@@@@@@@@@@@@@@@     OOOOOO   @@@@@@@@@@@@@@@@",
"@@@@@@@@@@@@@@@@@@@@@@@@@@@@@@@@@@     OOOOOO   @@@@@@@@@@@@@@@@",
"@@@@@@@@@@@@@@@@@@@@@@@@@@@@@@@@@@     OOOOOO   @@@@@@@@@@@@@@@@",
"@@@@@@@@@@@@@@@@@@@@@@@@@@@@@@@@@@@@@@@         @@@@@@@@@@@@@@@@",
"@@@@@@@@@@@@@@@@@@@@@@@@@@@@@@@@@@@@@@@         @@@@@@@@@@@@@@@@",
"@@@@@@@@@@@@@@@@@@@@@@@@@@@@@@@@@@@@@@@         @@@@@@@@@@@@@@@@"
};
