/* XPM */
static char *result[] = {
/* columns rows colors chars-per-pixel */
"64 64 8 1 ",
"  c gray20",
". c #CC3333",
"X c #CC6600",
"o c #669933",
"O c #FF9933",
"+ c #99FF66",
"@ c white",
"# c None",
/* pixels */
"#############################     ##############################",
"#############################     ##############################",
"#############################     ##############################",
"##########################   XXXXX   ###########################",
"##########################   XXXXX   ###########################",
"##########################   XXOOO   ###########################",
"##########################   XXOOO   ###########################",
"##########################   XXOOO   ###########################",
"##########################   XXOOO   ###########################",
"##########################   XXOOO   ###########################",
"##########################   XXOOO   ###########################",
"#######################   XXXOOOOOOOO   ########################",
"#######################   XXXOOOOOOOO   ########################",
"#####################  XXXXXXOO@@@OOOXXX  ######################",
"#####################  XXXXXXOO@@@OOOXXX  ######################",
"#####################  XXXXXXOO@@@OOOXXX  ######################",
"###############        XXXXXXOOOOOOOOXXX        ################",
"###############        XXXXXXOOOOOOOOXXX        ################",
"###############        XXXXXXOOOOOOOOXXX        ################",
"#############  XXXXXXXX   OOOOOOOOXXX   OOXXXXXX  ##############",
"#############  XXXXXXXX   OOOOOOOOXXX   OOXXXXXX  ##############",
"##########   XXXXXXXXXXXXXXXXXXXXXOOOOOOOOOOOXXXXX   ###########",
"##########   XXXXXXXXXXXXXXXXXXXXXOOOOOOOOOOOXXXXX   ###########",
"##########   XXXXXXXXXXXXXXXXXXXXXOOOOOOOOOOOXXXXX   ###########",
"#############     XXXXXXXXXXXOOOOOOOOOOOOOXXX     ##############",
"#############     XXXXXXXXXXXOOOOOOOOOOOOOXXX     ##############",
"#############     XXXXXXXXXXXOOOOOOOOOOOOOXXX     ##############",
"##################     XXXXXXXXXXXXXXXXX     ###################",
"##################     XXXXXXXXXXXXXXXXX     ###################",
"##################     XXXXXXXXXXXXXXXXX     ###################",
"###############   ooo     @@@     @@@     +++   ################",
"###############   ooo     @@@     @@@     +++   ################",
"###############   ooo     @@@     @@@     +++   ################",
"###############   ooo     @@@     @@@     +++   ################",
"###############   ooo     @@@     @@@     +++   ################",
"#############  ooo@@@++                 ++@@@+++  ##############",
"#############  ooo@@@++                 ++@@@+++  ##############",
"#############  ooo@@@++                 ++@@@+++  ##############",
"##########   oo+++@@@@@+++           +++@@@@@@@@++   ###########",
"##########   oo+++@@@@@+++           +++@@@@@@@@++   ###########",
"##########        @@@  @@@@@@@@@@@+++@@@  +++        ###########",
"##########        @@@  @@@@@@@@@@@+++@@@  +++        ###########",
"##########        @@@  @@@@@@@@@@@+++@@@  +++        ###########",
"##########   OOOOO     +++@@@@@@@@@@@@@@     OOOOO   ###########",
"##########   OOOOO     +++@@@@@@@@@@@@@@     OOOOO   ###########",
"##########   OOOOO     +++@@@@@@@@@@@@@@     OOOOO   ###########",
"##########   OOOOO   ++...+++.....@@@...oo   OOOOO   ###########",
"##########   OOOOO   ++...+++.....@@@...oo   OOOOO   ###########",
"##########           oo.................oo           ###########",
"##########           oo.................oo           ###########",
"##########           oo.................oo           ###########",
"#############  oooooo++ooo...........@@@@@oooooo  ##############",
"#############  oooooo++ooo...........@@@@@oooooo  ##############",
"#############  oooooo++ooo...........@@@@@oooooo  ##############",
"#############  oooooooo++++++.....@@@@@@++oooooo  ##############",
"#############  oooooooo++++++.....@@@@@@++oooooo  ##############",
"#############     ooooo   ++++++++++++++ooooo     ##############",
"#############     ooooo   ++++++++++++++ooooo     ##############",
"#############     ooooo   ++++++++++++++ooooo     ##############",
"##################     ooooooooooooooooo     ###################",
"##################     ooooooooooooooooo     ###################",
"##################     ooooooooooooooooo     ###################",
"#######################                 ########################",
"#######################                 ########################"
};
