/* XPM */
static char *result[] = {
/* columns rows colors chars-per-pixel */
"63 66 32 1 ",
"  c #222222",
". c #232323",
"X c #C4111A",
"o c #C5111A",
"O c #BC681A",
"+ c #BD681A",
"@ c #8D5623",
"# c #8D5723",
"$ c #FF7800",
"% c #FF7900",
"& c #4F9106",
"* c #4F9107",
"= c #79B81A",
"- c #79B91A",
"; c #349168",
": c #359168",
"> c #3DD971",
", c #3ED871",
"< c #3ED971",
"1 c #F4D93D",
"2 c #F4D83E",
"3 c #F4D93E",
"4 c #E5914E",
"5 c #E4914F",
"6 c #E5914F",
"7 c #F4A068",
"8 c #F4A168",
"9 c #EC5FB5",
"0 c #ED60B5",
"q c #FFF7FF",
"w c #FFF8FF",
"e c None",
/* pixels */
"eeeeeeeeeeeeeeeeeeeeeeeeeee............eeeeeeeeeeeeeeeeeeeeeeee",
"eeeeeeeeeeeeeeeeeeeeeeeeeee............eeeeeeeeeeeeeeeeeeeeeeee",
"eeeeeeeeeeeeeeeeeeeeeeeeeee............eeeeeeeeeeeeeeeeeeeeeeee",
"eeeeeeeeeeeeeeeeeeeeeeee...******---***......eeeeeeeeeeeeeeeeee",
"eeeeeeeeeeeeeeeeeeeeeeee...*&**&*-=-*&*......eeeeeeeeeeeeeeeeee",
"eeeeeeeeeeeeeeeeeeeeeeee...******---***......eeeeeeeeeeeeeeeeee",
"eeeeeeeeeeeeeeeeeeeee . *&**&*-=--=--=--=-*&*...eeeeeeeeeeeeeee",
"eeeeeeeeeeeeeeeeeeeee...******------------***...eeeeeeeeeeeeeee",
"eeeeeeeeeeeeeeeeeeeee . *&**&*-=--=--=--=-*&*...eeeeeeeeeeeeeee",
"eeeeeeeeeeee . eee .  . %%%*&**&*-=-*&*%%%...*&*......eeeeeeeee",
"eeeeeeeeeeee...eee......%%%******---***%%%...***......eeeeeeeee",
"eeeeeeeeeeee . eee .  . %%%*&**&*-=-*&*%%%...*&*......eeeeeeeee",
"eeeeeeeee . 888...000......%%%%%%%%%%%%......***...888...eeeeee",
"eeeeeeeee...888...000......%%%%%%%%%%%%......***...888...eeeeee",
"eeeeeeeee . 888...000......%%%%%%%%%%%%......***...888...eeeeee",
"eeeeeeeee . 888...000000090............090090......888...eeeeee",
"eeeeeeeee...888...000000000............000000......888...eeeeee",
"eeeeeeeee . 888...000000090............090090......888...eeeeee",
"eeeeeeeee . +++888...000090090090090090090090...888+O+...eeeeee",
"eeeeeeeee...+++888...000000000000000000000000...888+++...eeeeee",
"eeeeeeeee . +++888...000090090090090090090090...888+O+...eeeeee",
"eeeeeeeee . +++...000........................090...+O+...eeeeee",
"eeeeeeeee...+++...000........................000...+++...eeeeee",
"eeeeeeeee . +++...000........................090...+O+...eeeeee",
"eeeeeeeeeeee...+++...+++wwwwww++++++wwwwww+++...+++...eeeeeeeee",
"eeeeeeeeeeee...+++...+++wqwwqw++++++wqwwqw+++...+++...eeeeeeeee",
"eeeeeeeeeeee...+++...+++wwwwww++++++wwwwww+++...+++...eeeeeeeee",
"eeeeeeeeeeeeeee...++++++www...888888...www++++++...eeeeeeeeeeee",
"eeeeeeeeeeeeeee...++++++wqw...878878...wqw++++++...eeeeeeeeeeee",
"eeeeeeeeeeeeeee...++++++www...888888...www++++++...eeeeeeeeeeee",
"eeeeeeeeeeeeeee......+++888...888888...888+++......eeeeeeeeeeee",
"eeeeeeeeeeeeeee......+++878...878878...878+++......eeeeeeeeeeee",
"eeeeeeeeeeeeeee......+++888...888888...888+++......eeeeeeeeeeee",
"eeeeeeeeeeee...<<<:::...+++888888888888+++...:::<,<...eeeeeeeee",
"eeeeeeeeeeee...,<,:::...+++878878878878+++...:;:><>...eeeeeeeee",
"eeeeeeeeeeee...<<<:::...+++888888888888+++...:::<,<...eeeeeeeee",
"eeeeeeeee...###...::::::......++++++......::::::...#@#...eeeeee",
"eeeeeeeee...###...::::::......++++++......:;::;:...###...eeeeee",
"eeeeeeeee...###...::::::......++++++......::::::...#@#...eeeeee",
"eeeeeeeee...######...:::<<<:::......:::<<<:::...#@##@#...eeeeee",
"eeeeeeeee...######...:::<><:;:......:;:<><:;:...######...eeeeee",
"eeeeeeeee...######...:::<<<:::......:::<<<:::...#@##@#...eeeeee",
"eeeeeeeee...666......::::::<<<<<<<<<<<<<<<:::......656...eeeeee",
"eeeeeeeee...565......::::;:<><<><<><<><<><:;:......464...eeeeee",
"eeeeeeeee...666......::::::<<<<<<<<<<<<<<<:::......656...eeeeee",
"eeeeeeeee...666666...:::::::::<<<<<<:::::::::...656656...eeeeee",
"eeeeeeeee...565565...::::;::;:<><<><:;::;::;:...464464...eeeeee",
"eeeeeeeee...666666...:::::::::<<<<<<:::::::::...656656...eeeeee",
"eeeeeeeee...565...:::232313...313313...313313:;:...464...eeeeee",
"eeeeeeeee...656...:::323232...232232...232232:::...666...eeeeee",
"eeeeeeeee...565...:::232313...313313...313313:;:...464...eeeeee",
"eeeeeeeeeeee.........::::;:313313313313:;::;:.........eeeeeeeee",
"eeeeeeeeeeee.........::::::232232232232::::::.........eeeeeeeee",
"eeeeeeeeeeee.........::::;:313313313313:;::;:.........eeeeeeeee",
"eeeeeeeeeeeeeee...XoX......:;::;::;::;:......oXo...eeeeeeeeeeee",
"eeeeeeeeeeeeeee...ooo......::::::::::::......ooo...eeeeeeeeeeee",
"eeeeeeeeeeeeeee...XoX......:;::;::;::;:......oXo...eeeeeeeeeeee",
"eeeeeeeeeeeeeee......%%%oXo............oXo%$%......eeeeeeeeeeee",
"eeeeeeeeeeeeeee......%%%ooo............ooo%%%......eeeeeeeeeeee",
"eeeeeeeeeeeeeee......%%%oXo............oXo%$%......eeeeeeeeeeee",
"eeeeeeeeeeeeeeeeee..............................eeeeeeeeeeeeeee",
"eeeeeeeeeeeeeeeeee..............................eeeeeeeeeeeeeee",
"eeeeeeeeeeeeeeeeee..............................eeeeeeeeeeeeeee",
"eeeeeeeeeeeeeeeeeeeeeeee..................eeeeeeeeeeeeeeeeeeeee",
"eeeeeeeeeeeeeeeeeeeeeeee..................eeeeeeeeeeeeeeeeeeeee",
"eeeeeeeeeeeeeeeeeeeeeeee..................eeeeeeeeeeeeeeeeeeeee"
};
