/* XPM */
static char *result[] = {
/* columns rows colors chars-per-pixel */
"48 66 15 1 ",
"  c #232323",
". c #C5111A",
"X c #BD681A",
"o c #8D5723",
"O c #FF7900",
"+ c #4F9107",
"@ c #79B91A",
"# c #359168",
"$ c #3ED971",
"% c #F4D93E",
"& c #E5914F",
"* c #F4A168",
"= c #ED60B5",
"- c #FFF8FF",
"; c None",
/* pixels */
";;;;;;;;;;;;;;;;;;            ;;;;;;;;;;;;;;;;;;",
";;;;;;;;;;;;;;;;;;            ;;;;;;;;;;;;;;;;;;",
";;;;;;;;;;;;;;;;;;            ;;;;;;;;;;;;;;;;;;",
";;;;;;;;;;;;;;;   ++++++@@@+++      ;;;;;;;;;;;;",
";;;;;;;;;;;;;;;   ++++++@@@+++      ;;;;;;;;;;;;",
";;;;;;;;;;;;;;;   ++++++@@@+++      ;;;;;;;;;;;;",
";;;;;;;;;;;;   ++++++@@@@@@@@@@@@+++   ;;;;;;;;;",
";;;;;;;;;;;;   ++++++@@@@@@@@@@@@+++   ;;;;;;;;;",
";;;;;;;;;;;;   ++++++@@@@@@@@@@@@+++   ;;;;;;;;;",
";;;   ;;;      OOO++++++@@@+++OOO   +++      ;;;",
";;;   ;;;      OOO++++++@@@+++OOO   +++      ;;;",
";;;   ;;;      OOO++++++@@@+++OOO   +++      ;;;",
"   ***   ===      OOOOOOOOOOOO      +++   ***   ",
"   ***   ===      OOOOOOOOOOOO      +++   ***   ",
"   ***   ===      OOOOOOOOOOOO      +++   ***   ",
"   ***   =========            ======      ***   ",
"   ***   =========            ======      ***   ",
"   ***   =========            ======      ***   ",
"   XXX***   ========================   ***XXX   ",
"   XXX***   ========================   ***XXX   ",
"   XXX***   ========================   ***XXX   ",
"   XXX   ===                        ===   XXX   ",
"   XXX   ===                        ===   XXX   ",
"   XXX   ===                        ===   XXX   ",
";;;   XXX   XXX------XXXXXX------XXX   XXX   ;;;",
";;;   XXX   XXX------XXXXXX------XXX   XXX   ;;;",
";;;   XXX   XXX------XXXXXX------XXX   XXX   ;;;",
";;;;;;   XXXXXX---   ******   ---XXXXXX   ;;;;;;",
";;;;;;   XXXXXX---   ******   ---XXXXXX   ;;;;;;",
";;;;;;   XXXXXX---   ******   ---XXXXXX   ;;;;;;",
";;;;;;      XXX***   ******   ***XXX      ;;;;;;",
";;;;;;      XXX***   ******   ***XXX      ;;;;;;",
";;;;;;      XXX***   ******   ***XXX      ;;;;;;",
";;;   $$$###   XXX************XXX   ###$$$   ;;;",
";;;   $$$###   XXX************XXX   ###$$$   ;;;",
";;;   $$$###   XXX************XXX   ###$$$   ;;;",
"   ooo   ######      XXXXXX      ######   ooo   ",
"   ooo   ######      XXXXXX      ######   ooo   ",
"   ooo   ######      XXXXXX      ######   ooo   ",
"   oooooo   ###$$$###      ###$$$###   oooooo   ",
"   oooooo   ###$$$###      ###$$$###   oooooo   ",
"   oooooo   ###$$$###      ###$$$###   oooooo   ",
"   &&&      ######$$$$$$$$$$$$$$$###      &&&   ",
"   &&&      ######$$$$$$$$$$$$$$$###      &&&   ",
"   &&&      ######$$$$$$$$$$$$$$$###      &&&   ",
"   &&&&&&   #########$$$$$$#########   &&&&&&   ",
"   &&&&&&   #########$$$$$$#########   &&&&&&   ",
"   &&&&&&   #########$$$$$$#########   &&&&&&   ",
"   &&&   ###%%%%%%   %%%%%%   %%%%%%###   &&&   ",
"   &&&   ###%%%%%%   %%%%%%   %%%%%%###   &&&   ",
"   &&&   ###%%%%%%   %%%%%%   %%%%%%###   &&&   ",
";;;         ######%%%%%%%%%%%%######         ;;;",
";;;         ######%%%%%%%%%%%%######         ;;;",
";;;         ######%%%%%%%%%%%%######         ;;;",
";;;;;;   ...      ############      ...   ;;;;;;",
";;;;;;   ...      ############      ...   ;;;;;;",
";;;;;;   ...      ############      ...   ;;;;;;",
";;;;;;      OOO...            ...OOO      ;;;;;;",
";;;;;;      OOO...            ...OOO      ;;;;;;",
";;;;;;      OOO...            ...OOO      ;;;;;;",
";;;;;;;;;                              ;;;;;;;;;",
";;;;;;;;;                              ;;;;;;;;;",
";;;;;;;;;                              ;;;;;;;;;",
";;;;;;;;;;;;;;;                  ;;;;;;;;;;;;;;;",
";;;;;;;;;;;;;;;                  ;;;;;;;;;;;;;;;",
";;;;;;;;;;;;;;;                  ;;;;;;;;;;;;;;;"
};
