/* XPM */
static char *result[] = {
/* columns rows colors chars-per-pixel */
"60 69 34 1 ",
"  c #272727",
". c #282828",
"X c #BF1720",
"o c #C01820",
"O c #885727",
"+ c #885728",
"@ c #885828",
"# c #B76720",
"$ c #B76820",
"% c #B86820",
"& c #F77800",
"* c #F87800",
"= c #4F8F10",
"- c #4F9010",
"; c #509010",
": c #78B720",
"> c #78B820",
", c #379068",
"< c #389068",
"1 c #40D86F",
"2 c #40D870",
"3 c #DF9050",
"4 c #E0904F",
"5 c #E09050",
"6 c #EF9F67",
"7 c #F09F68",
"8 c #F0A068",
"9 c #F0D840",
"0 c #E85FAF",
"q c #E860AF",
"w c #E860B0",
"e c gray97",
"r c #F8F8F8",
"t c None",
/* pixels */
"tttttttttttttttttttttttttttttttttttttttttttttttttttttttttttt",
"tttttttttttttttttttttttttttttttttttttttttttttttttttttttttttt",
"tttttttttttttttttttttttttttttttttttttttttttttttttttttttttttt",
"tttttttttttttttttttttttt. .. .. .. .tttttttttttttttttttttttt",
"tttttttttttttttttttttttt............tttttttttttttttttttttttt",
"tttttttttttttttttttttttt. .. .. .. .tttttttttttttttttttttttt",
"ttttttttttttttttttttt . ;;;;;;>>>;;;......tttttttttttttttttt",
"ttttttttttttttttttttt...;-;;-;>:>;-;. .. .tttttttttttttttttt",
"ttttttttttttttttttttt . ;;;;;;>>>;;;......tttttttttttttttttt",
"tttttttttttttttttt . =;=;;;>>>>>>>>>>>>;;;...ttttttttttttttt",
"tttttttttttttttttt...;;;;-;>:>>:>>:>>:>;-;. .ttttttttttttttt",
"tttttttttttttttttt . =;=;;;>>>>>>>>>>>>;;;...ttttttttttttttt",
"ttttttttt . ttt......***;-;;-;>:>;-;***. .;-;. . . ttttttttt",
"ttttttttt...ttt......***;;;;;;>>>;;;***...;;;......ttttttttt",
"ttttttttt . ttt......***;-;;-;>:>;-;***. .;-;. . . ttttttttt",
"tttttt . 686...www......************. .. .;-;. .787 . tttttt",
"tttttt...888...www......************......;;;...888...tttttt",
"tttttt . 686...www......************. .. .;-;. .787 . tttttt",
"tttttt . 686...wwwwwwwww. .. .. .. .w0ww0w. .. .787 . tttttt",
"tttttt...888...wwwwwwwww............wwwwww......888...tttttt",
"tttttt . 686...wwwwwwwww. .. .. .. .w0ww0w. .. .787 . tttttt",
"tttttt . #%#888...wwwwwww0ww0ww0ww0ww0ww0w. .878$%$ . tttttt",
"tttttt...%%%888...wwwwwwwwwwwwwwwwwwwwwwww...888%%%...tttttt",
"tttttt . #%#888...wwwwwww0ww0ww0ww0ww0ww0w. .878$%$ . tttttt",
"tttttt...%%%...www........................www...%%%...tttttt",
"tttttt. .%$% . 0w0 .  . ..................wqw...%%%...tttttt",
"tttttt...%%%...www........................www...%%%...tttttt",
"ttttttttt...%%%...%%%rrrrrr%%%%%%rrrrrr%%%...%%%...ttttttttt",
"ttttttttt. .$%$ . $%$rrrrer%%%%%%rerrer%%%...%%%...ttttttttt",
"ttttttttt...%%%...%%%rrrrrr%%%%%%rrrrrr%%%...%%%...ttttttttt",
"tttttttttttt...%%%%%%rrr...888888...rrr%%%%%%...tttttttttttt",
"tttttttttttt . $%$$%$rrr...888888...rer%%%%%%...tttttttttttt",
"tttttttttttt...%%%%%%rrr...888888...rrr%%%%%%...tttttttttttt",
"tttttttttttt......%%%888...888888...888%%%......tttttttttttt",
"tttttttttttt .  . $%$787...888888...888%%%......tttttttttttt",
"tttttttttttt......%%%888...888888...888%%%......tttttttttttt",
"ttttttttt...222<<<...%%%888888888888%%%...<<<222...ttttttttt",
"ttttttttt. .222<<< . $%$888888888888%%%...<,<212...ttttttttt",
"ttttttttt...222<<<...%%%888888888888%%%...<<<222...ttttttttt",
"tttttt...@@@...<<<<<<......%%%%%%......<<<<<<...@@@...tttttt",
"tttttt. .+O+ . <<<<<< . ...%%%%%%......<,<<,<...+@+...tttttt",
"tttttt...@@@...<<<<<<......%%%%%%......<<<<<<...@@@...tttttt",
"tttttt...@@@@@@...<<<222<<<......<<<222<<<...@@@@@@...tttttt",
"tttttt. .+O+O@O . <<<222<,<......<,<212<,<...@+@+@+...tttttt",
"tttttt...@@@@@@...<<<222<<<......<<<222<<<...@@@@@@...tttttt",
"tttttt...555......<<<<<<222222222222222<<<......555...tttttt",
"tttttt. .343 .  . <<<<<<212212212212212<,<......353...tttttt",
"tttttt...555......<<<<<<222222222222222<<<......555...tttttt",
"tttttt. .343454 . <<<<<<<,<212212<,<<,<<,<...535353...tttttt",
"tttttt...555555...<<<<<<<<<222222<<<<<<<<<...555555...tttttt",
"tttttt. .343454 . <<<<<<<,<212212<,<<,<<,<...535353...tttttt",
"tttttt. .343 . <<<999999...999999...999999<,<...353...tttttt",
"tttttt...555...<<<999999...999999...999999<<<...555...tttttt",
"tttttt. .343 . <<<999999...999999...999999<,<...353...tttttt",
"ttttttttt. . .  . <<<<<<999999999999<,<<,<.........ttttttttt",
"ttttttttt.........<<<<<<999999999999<<<<<<.........ttttttttt",
"ttttttttt. . .  . <<<<<<999999999999<,<<,<.........ttttttttt",
"tttttttttttt . XoX .  . <,<<,<<,<<,<......ooo...tttttttttttt",
"tttttttttttt...oXo......<<<<<<<<<<<<......XoX...tttttttttttt",
"tttttttttttt . XoX .  . <,<<,<<,<<,<......ooo...tttttttttttt",
"tttttttttttt .  . ***XoX............ooo*&*......tttttttttttt",
"tttttttttttt......***oXo............XoX***......tttttttttttt",
"tttttttttttt .  . ***XoX............ooo*&*......tttttttttttt",
"ttttttttttttttt .  .  . .....................ttttttttttttttt",
"ttttttttttttttt..............................ttttttttttttttt",
"ttttttttttttttt .  .  . .....................ttttttttttttttt",
"ttttttttttttttttttttt . ...............ttttttttttttttttttttt",
"ttttttttttttttttttttt..................ttttttttttttttttttttt",
"ttttttttttttttttttttt . ...............ttttttttttttttttttttt"
};
