/* XPM */
static char *result[] = {
/* columns rows colors chars-per-pixel */
"94 80 161 2 ",
"   c #120F27",
".  c #15152C",
"X  c #19162C",
"o  c #17182D",
"O  c #1B192E",
"+  c #1D1D32",
"@  c #21192F",
"#  c #3A172E",
"$  c #211E33",
"%  c #2A1E33",
"&  c #351632",
"*  c #341E34",
"=  c #3C1C34",
"-  c #3E1F38",
";  c #1F2034",
":  c #222034",
">  c #2B2236",
",  c #2A2837",
"<  c #262539",
"1  c #282638",
"2  c #2C2A3B",
"3  c #312337",
"4  c #3C2136",
"5  c #342439",
"6  c #3C253A",
"7  c #322D3C",
"8  c #3C2B3C",
"9  c #35333E",
"0  c #38323E",
"q  c #37383F",
"w  c #393B3F",
"e  c #411F35",
"r  c #411F38",
"t  c #402036",
"y  c #44253B",
"u  c #49273C",
"i  c #45283C",
"p  c #49293D",
"a  c #46323F",
"s  c #49303F",
"d  c #2F2E41",
"f  c #322F40",
"g  c #392D40",
"h  c #353342",
"j  c #3A3643",
"k  c #3D3B42",
"l  c #3D3B4A",
"z  c #412F41",
"x  c #4A2E40",
"c  c #453541",
"v  c #4B3343",
"b  c #463C43",
"n  c #4B3C45",
"m  c #4F3649",
"M  c #423E4D",
"N  c #4D3B4A",
"B  c #513544",
"V  c #533B46",
"C  c #593E47",
"Z  c #53354A",
"A  c #523C4C",
"S  c #593F48",
"D  c #3F4044",
"F  c #454446",
"G  c #494347",
"H  c #444847",
"J  c #484847",
"K  c #45434A",
"L  c #4C4449",
"P  c #474A49",
"I  c #494949",
"U  c #53444A",
"Y  c #5C434A",
"T  c #534D4D",
"R  c #5B4A4D",
"E  c #4E504D",
"W  c #53514F",
"Q  c #5C514F",
"!  c #474653",
"~  c #4B4452",
"^  c #4C4857",
"/  c #4E4C59",
"(  c #564251",
")  c #584453",
"_  c #5A4A54",
"`  c #544F5A",
"'  c #5D4C5A",
"]  c #565451",
"[  c #595652",
"{  c #5C5A54",
"}  c #55505C",
"|  c #58525D",
" . c #5D5B5C",
".. c #61464F",
"X. c #614A4D",
"o. c #63504F",
"O. c #644B52",
"+. c #694F53",
"@. c #604E5A",
"#. c #655552",
"$. c #6B5553",
"%. c #635D56",
"&. c #6A5D55",
"*. c #61525E",
"=. c #645F58",
"-. c #70595A",
";. c #666057",
":. c #6D6056",
">. c #656159",
",. c #6C645A",
"<. c #6E685D",
"1. c #73655A",
"2. c #7A665D",
"3. c #746A5D",
"4. c #7A6D5E",
"5. c #585661",
"6. c #5D5A64",
"7. c #635560",
"8. c #645B65",
"9. c #685D66",
"0. c #675F68",
"q. c #685E68",
"w. c #656060",
"e. c #65626A",
"r. c #6B636B",
"t. c #736B61",
"y. c #7B6D63",
"u. c #7C7466",
"i. c #7E7668",
"p. c #816C5F",
"a. c #81705F",
"s. c #826D62",
"d. c #847462",
"f. c #887663",
"g. c #877864",
"h. c #8A7A65",
"j. c #857369",
"k. c #8B766D",
"l. c #847A6B",
"z. c #8B7E6D",
"x. c #907D6F",
"c. c #8F8167",
"v. c #8D816D",
"b. c #94826B",
"n. c #8C8070",
"m. c #928472",
"M. c #998772",
"N. c #958A76",
"B. c #9C8C77",
"V. c #9C8D79",
"C. c #9E917A",
"Z. c #A3937C",
"A. c #A7987F",
"S. c #AC9C83",
"D. c #B09F85",
"F. c #AFA085",
"G. c #B2A286",
"H. c #B5A488",
"J. c #B8A68A",
"K. c #B9A88B",
"L. c None",
/* pixels */
"L.L.L.L.L.L.L.L.L.L.L.L.L.L.L.L.L.L.L.L.L.L.L.L.L.L.L.L.L.L.L.L.L.L.L.L.L.L.L.L.L.L.L.L.L.L.L.L.L.L.L.L.L.L.L.L.L.L.L.L.L.L.L.L.L.L.L.L.L.L.L.L.L.L.L.L.L.L.L.L.L.L.L.L.L.L.L.L.L.L.L.L.L.L.",
"L.L.L.L.L.L.L.L.L.L.L.L.L.L.L.L.L.L.L.L.L.L.L.L.L.L.L.L.L.L.L.L.L.L.L.L.L.L.L.L.L.L.L.L.L.L.L.L.L.L.L.8.*.*.8.*.*.8.*.*.9.L.L.L.L.L.L.L.L.L.L.L.L.L.L.L.L.L.L.L.L.L.L.L.L.L.L.L.L.L.L.L.L.L.",
"L.L.L.L.L.L.L.L.L.L.L.L.L.L.L.L.L.L.L.L.L.L.L.L.L.L.L.L.L.L.L.L.L.L.L.L.L.L.L.L.L.L.L.L.L.L.L.L.L.L.L.A 4 t t t t t t 4 x L.L.L.L.L.L.L.L.L.L.L.L.L.L.L.L.L.L.L.L.L.L.L.L.L.L.L.L.L.L.L.L.L.",
"L.L.L.L.L.L.L.L.L.L.L.L.L.L.L.L.L.L.L.L.L.L.L.L.L.L.L.L.L.L.L.L.L.L.L.L.L.L.L.L.L.L.L.L.L.L.@.| / / ` L a a b n V L V i p ' 8.L.L.L.L.L.L.L.L.L.L.L.L.L.L.L.L.L.L.L.L.L.L.L.L.L.L.L.L.L.L.L.",
"L.L.L.L.L.L.L.L.L.L.L.L.L.L.L.L.L.L.L.L.L.L.L.L.L.L.L.L.L.L.L.L.L.L.L.L.L.L.L.L.L.L.L.L.L.9.e * . o . 9 E H P ] { { [ x i = B L.L.L.L.L.L.L.L.L.L.L.L.L.L.L.L.L.L.L.L.L.L.L.L.L.L.L.L.L.L.L.",
"L.L.L.L.L.L.L.L.L.L.L.L.L.L.L.L.L.L.L.L.L.L.L.L.L.L.L.L.L.L.L.L.L.L.L.L.L.L.L.L.' ) ! ! ! M > 3 4 7 h J W E W ,.3.U b 5 > > 8 ( 7.L.L.L.L.L.L.L.L.L.L.L.L.L.L.L.L.L.L.L.L.L.L.L.L.L.L.L.L.L.",
"L.L.L.L.L.L.L.L.L.L.L.L.L.L.L.L.L.L.L.L.L.L.L.L.L.L.L.L.L.L.L.L.L.L.L.L.L.L.L.` v = O O X O + > x v P ] { [ ] 4.d.v 4 + + + $ # ( L.L.L.L.L.L.L.L.L.L.L.L.L.L.L.L.L.L.L.L.L.L.L.L.L.L.L.L.L.",
"L.L.L.L.L.L.L.L.L.L.L.L.L.L.L.L.L.L.L.L.L.L.L.L.L.L.L.L.L.L.L.L.L.L.! j l M 1 1 5 > $ : 4 8 k k b L ] ] W ,.4.R C p i F K k b b U t ( L.L.L.L.L.L.L.L.L.L.L.L.L.L.L.L.L.L.L.L.L.L.L.L.L.L.L.",
"L.L.L.L.L.L.L.L.L.L.L.L.L.L.L.L.L.L.L.L.L.L.L.L.L.L.L.L.L.L.L.L.L.L.M   O O $ + + : : > u v I I P T { ] W 3.h.B 6 y u [ { I I I b = ' L.L.L.L.L.L.L.L.L.L.L.L.L.L.L.L.L.L.L.L.L.L.L.L.L.L.L.",
"L.L.L.L.L.L.L.L.L.L.L.L.L.L.L.L.L.L.L.L.L.L.L.L.L.L.L.L.' i y i x y K k k F k b I I k F T ] ] ] ] ] ] u.A.] 7 L T T T [ [ ] ] [ T F b t ' L.L.L.L.L.L.L.L.L.L.L.L.L.L.L.L.L.L.L.L.L.L.L.L.L.",
"L.L.L.L.L.L.L.L.L.L.L.L.L.L.L.L.L.L.L.L.L.L.L.L.L.L.L.L.( p i i i y b I P I P I [ { P P [ [ [ [ [ ] ] z.J.L . I { [ { [ [ [ { { W E b 4 *.L.L.L.L.L.L.L.L.L.L.L.L.L.L.L.L.L.L.L.L.L.L.L.L.L.",
"L.L.L.L.L.L.L.L.L.L.L.L.L.L.L.L.L.L.L.L.L.L.L.L.L.2 > y v J F F T [ ] [ [ [ [ ] I P ] [ [ [ [ [ [ [ [ [ ] W T ] [ [ [ [ [ [ [ [ [ [ W [ U t *.L.L.L.L.L.L.L.L.L.L.L.L.L.L.L.L.L.L.L.L.L.L.L.",
"L.L.L.L.L.L.L.L.L.L.L.L.L.L.L.L.L.L.L.L.L.L.L.L.L.< % y v I P J T [ ] [ [ [ [ ] I I [ [ [ [ [ [ [ [ [ E F W { [ [ [ [ [ [ [ [ [ [ [ [ { U y ' L.L.L.L.L.L.L.L.L.L.L.L.L.L.L.L.L.L.L.L.L.L.L.",
"L.L.L.L.L.L.L.L.L.L.L.L.L.L.L.L.L.L.L.L.L.L.L.L.L.< 2 G I I W [ I P ] [ I P ] [ [ { [ [ [ [ [ [ [ [ [ [ [ [ [ [ [ [ [ [ [ [ [ [ [ [ [ [ ] [ n i 7.L.L.L.L.L.L.L.L.L.L.L.L.L.L.L.L.L.L.L.L.L.",
"L.L.L.L.L.L.L.L.L.L.L.L.L.L.L.L.L.L.L.L.L.L.L.L.2 : , P I I W [ ] I ] [ ] ] ] ] [ [ [ [ [ [ [ [ [ [ [ [ [ [ [ [ [ [ [ [ [ [ [ [ [ [ [ [ [ [ N i ) L.L.L.L.L.L.L.L.L.L.L.L.L.L.L.L.L.L.L.L.L.",
"L.L.L.L.L.L.L.L.L.L.L.L.L.L.L.L.L.L.L.L.L.L.L.h : + 9 [ [ [ [ [ [ [ T ] V.F.[ F [ [ [ [ [ [ [ [ [ [ [ [ [ [ [ [ [ [ [ [ [ [ [ [ [ [ [ [ [ [ [ [ n x *.L.L.L.L.L.L.L.L.L.L.L.L.L.L.L.L.L.L.L.",
"L.L.L.L.L.L.L.L.L.L.L.L.L.L.L.L.L.L.L.L.L.L.L.2 O + 9 %.%.[ [ [ [ [ %.<.k.m.[ I [ [ [ [ [ [ [ [ [ [ [ [ [ [ [ [ [ [ [ [ [ [ [ [ [ [ ] T Q %.{ [ n v A L.L.L.L.L.L.L.L.L.L.L.L.L.L.L.L.L.L.L.",
"L.L.L.L.L.L.L.L.L.L.L.L.L.L.L.L.L.L.L.L.L.L.L.2 + o k f.1.W [ [ ] ] N.J...& W { [ [ [ [ [ [ [ [ [ [ [ [ [ [ [ [ [ [ [ [ [ [ [ [ [ { U & Y d.,.] [ [ x v ' L.L.L.L.L.L.L.L.L.L.L.L.L.L.L.L.L.",
"L.L.L.L.L.L.L.L.L.L.L.L.L.L.L.L.L.L.L.L.L.L.2 2 $ % b 3.1.;.[ U [ &.y.k.Y i T [ [ [ [ [ [ [ [ [ [ [ [ [ [ [ [ [ W ] [ [ [ [ [ [ ] W [ ) 2.b.<.] { [ b v N L.L.L.L.L.L.L.L.L.L.L.L.L.L.L.L.L.",
"L.L.L.L.L.L.L.L.L.L.L.L.L.L.L.L.L.L.L.L.L.h : + > t m ] <.c.$.= $.c.C = T  .[ [ [ [ [ [ [ [ [ [ [ [ [ ] ] [  .I J ] [ [ [ [ [ [ W k t.H.G.J.i.] [ { I F i Z L.L.L.L.L.L.L.L.L.L.L.L.L.L.L.L.",
"L.L.L.L.L.L.L.L.L.L.L.L.L.L.L.L.L.L.L.L.L.2 + + > y v L R $.S t Y $.U v T { [ [ [ ] [ [ [ [ [ [ [ [ W ;.,.T V I E [ [ [ [ [ [ [ [ P >.z.v.n.<.] [ [ E F b v h l L.L.L.L.L.L.L.L.L.L.L.L.L.L.",
"L.L.L.L.L.L.L.L.L.L.L.L.L.L.L.L.L.L.L.L.L.7 + + > y y y y - y y t 4 L [ ] W W W E W E ] [ [ [ [ [ ] W 3.c.C = T { [ [ [ [ [ [ [ [ [ [ ] ] ] [ [ [ [ I J E K : h L.L.L.L.L.L.L.L.L.L.L.L.L.L.",
"L.L.L.L.L.L.L.L.L.L.L.L.L.L.L.L.L.L.L.M h < $ 5 6 y y y c V n c b U %.1.,.,.u.l.l.l.l.u.] [ [ [ [ =.,.$.X.U n Q [ [ [ [ [ [ [ [ [ [ [ ] ] ] ] [ [ [ I F P F O 2 L.L.L.L.L.L.L.L.L.L.L.L.L.L.",
"L.L.L.L.L.L.L.L.L.L.L.L.L.L.L.L.L.L.L.2 $ $ $ t u y y y n { ] J W { t.h.d.h.S.J.G.F.G.V.W E W W ] <.x.X.= U { [ [ [ [ [ [ [ [ [ [ [ [ [ [ [ [ [ [ [ T P E J ; 9 L.L.L.L.L.L.L.L.L.L.L.L.L.L.",
"L.L.L.L.L.L.L.L.L.L.L.L.L.L.L.L.L.L.L.2 $ 9 k U U b b b n n b c b V Y Y Y Y $.-.t.u.v.b.z.z.z.j.1.[ b b b E { [ [ [ [ [ [ [ [ [ [ [ [ [ [ [ [ [ [ [ I F 9 7 > m L.L.L.L.L.L.L.L.L.L.L.L.L.L.",
"L.L.L.L.L.L.L.L.L.L.L.L.L.L.L.L.L.L.L.2 : J I { [ P P P c y y y y y y y y y t i T %.4.x.F.F.G.Z.d.T   9 P W [ [ [ [ [ [ [ [ [ [ [ [ [ [ [ [ [ [ [ [ E F < + = Z L.L.L.L.L.L.L.L.L.L.L.L.L.L.",
"L.L.L.L.L.L.L.L.L.L.L.L.L.L.L.L.L.M l : : F I [ ] ] ] ] ] T U T L b 7 : > 1 > > 7 9 j b X.O.O.Y k 8 - b P ] [ [ [ [ [ [ [ [ [ [ [ [ [ [ [ [ ] ] ,.4.C 8 k k b G A ' L.L.L.L.L.L.L.L.L.L.L.L.",
"L.L.L.L.L.L.L.L.L.L.L.L.L.L.L.L.L.< + $ 1 G I [ [ [ [ [ [ { [ [ T J 7 + $ : : : + + + $ t 6 t 3 + 3 u b P ] [ [ [ [ [ [ [ [ [ [ [ [ [ [ [ [ [ [ 3.d.C 4 F E I J 4 m L.L.L.L.L.L.L.L.L.L.L.L.",
"L.L.L.L.L.L.L.L.L.L.L.L.L.L.L.L.L.2 : 5 y T ] ] ] ] ] [ [ [ [ [ [ Q 7 + : : : : : : $ : > > > : + 7 J T [ [ [ [ [ [ [ [ [ [ [ [ [ [ [ [ ] E u.C.$.v n F J I P F y m L.L.L.L.L.L.L.L.L.L.L.L.",
"L.L.L.L.L.L.L.L.L.L.L.L.L.L.L.L.L.7 $ i x [ { { { { [ [ [ [ [ [ [ [ h O : : : $ : : : : ; : : ; + h P T [ [ [ [ [ [ [ [ [ [ [ { [ [ [ [ [ ] n.F.O.* G P J P I G y A L.L.L.L.L.L.L.L.L.L.L.L.",
"L.L.L.L.L.L.L.L.L.L.L.L.L.L.L.l j $ + I { 2.d.V.Z.A.l.W ] ] [ [ { { 9 + $ : : : : : : : : : : : ; 9 E W [ [ [ [ [ [ [ [ [ [ [ [ [ [ [ ] i.S.j.;.T F J G I J P J t m L.L.L.L.L.L.L.L.L.L.L.L.",
"L.L.L.L.L.L.L.L.L.L.L.L.L.L.L.: + : 1 T { 2.d.Z.A.G.m.=.{ { [ [ ] Q 9 + : : : : : : $ : : : : : ; 7 F T { { [ [ [ [ [ [ [ [ [ [ [ [ [ I u.S.u.I I I I I I J I F y m r.L.L.L.L.L.L.L.L.L.L.L.",
"L.L.L.L.L.L.L.L.L.L.L.L.L.L.L.1 : I [ v p s n ;.3.f.M.S.B.d.3.=.L y > $ $ : $ : : : : : + : : : : : : [ h.;.] ] T ] [ [ [ [ [ [ [ [ [ [ { ;.] I I I J I P J G G F G p ) L.L.L.L.L.L.L.L.L.L.",
"L.L.L.L.L.L.L.L.L.L.L.L.L.L.L.2 : I W p y 4 y L W #.y.B.k.1.{ I n p 3 + : : : : : : : : > : : : : + O U 2.%.{ ;.>.{ [ [ [ [ [ [ [ [ [ [ W W I F I J J I I P I P P F = m L.L.L.L.L.L.L.L.L.L.",
"L.L.L.L.L.L.L.L.L.L.L.L.L.L.L.x p p p p p i i p i < < 2 1 1 > : b [ 9 + : : : : : : + > i 5 + + + ; $ : : %.g.Z.S. .T E E T ] [ [ [ [  .W I I I I I G I P G P J P G y A L.L.L.L.L.L.L.L.L.L.",
"L.L.L.L.L.L.L.L.L.L.L.L.L.L.L.8 6 6 6 6 6 i i y 6 : + O O + + + F { j + : $ : : : : + < i i > > > > $ + + U &.m.V.t.,.<.,.t.;.[ ] [ Q T I G I I I F I P I G J I P J t A L.L.L.L.L.L.L.L.L.L.",
"L.L.L.L.L.L.L.L.L.L.L.L.L.L.L.h : + : : : i p p p p 5 : : : : + b %.9 O : : : : : : ; > i i i i i 5 + : : : $ I { C.S.A.S.S.N.{ ] { U t c I J I J I P I G P I I I J t A L.L.L.L.L.L.L.L.L.L.",
"L.L.L.L.L.L.L.L.L.L.L.L.L.| 6.j > > > : : 5 6 6 6 6 5 : $ : : + b { j % : : : : : : ; > i i i i i 6 > > > $ + b T b.Z.C.V.Z.m.[ ] U G x c I I J I F G J P I F I I F i A 8.9.L.L.L.L.L.L.L.L.",
"L.L.L.L.L.L.L.L.L.L.L.L.L.< O 6 p p i : ; : : @ : : : : : : : + D { v y > + : : : : + > i i i i i i i p x > + 6 y 2.a.a.u.d.2.{ U y z I P I I I I I I P J I I I P G I F t m L.L.L.L.L.L.L.L.",
"L.L.L.L.L.L.L.L.L.L.L.L.L.: : 3 6 i i 5 3 : : : : : : : : : : $ k [ U b 5 + : : : : : < i y i i i i i i y 6 > 5 5 X.$.+.$.$.#.U n c b I I I J I I F I J G P F I P I E L y A L.L.L.L.L.L.L.L.",
"L.L.L.L.L.L.L.L.L.L.L.L.L.l + : + 6 i i i : : : : : : : : : : + h P [ { 9 + $ $ : : : > i i i y i i i i y p x < ; 6 t y 6 t y t a I P I P J I J J I J I J P J I F I { T y A L.L.L.L.L.L.L.L.",
"L.L.L.L.L.L.L.L.L.L.L.L.` h + $ : > 5 5 3 $ $ : $ $ : : : : : $ k P ] [ 2 + $ $ $ : + < i i i i i i y i i y y 5 3 y i i y i i y a P I I P G J I I J I J G J I P J I ,.#.t A L.L.L.L.L.L.L.L.",
"L.L.L.L.L.L.L.L.L.L.L.L.O O : $ : ; ; + + : : $ $ $ $ $ $ : : $ w P ] [ 7 + : : : $ : > i i i i i i i i i i i i p i i i i y y y a G P I I J J J I J J J P I J J F T h.1.t ( L.L.L.L.L.L.L.L.",
"L.L.L.L.L.L.L.L.L.L.L.L.+ 2 k < + 5 5 b F h 9 w 9 4 3 $ + : : + 8 b T { 7 + : : : $ $ < i i i y i i i i i i i i i i i i i y x u c I I I J J J J J I J J J J F J ;.&...C y v ' *.L.L.L.L.L.L.",
"L.L.L.L.L.L.L.L.L.L.L.^ X w W 9 + y p [ { I I E J p 6 $ + : : ; 3 u R [ 9 + : $ : : : > i y i i i i i i i i i i y i i i y y i y c G I I J K I J I J J I I I F W f.2.t t x t r v L.L.L.L.L.L.",
"L.L.L.L.L.L.L.L.L.L.M K G I W I J 5 > v V ,.,.W T T L w 0 6 > + % > I { 7 + : : : : + > i i i i i i i y y i i i i i i i x y x y i x b I J I J I K J J I F P ,.:.Y C b b b c y n L.L.L.L.L.L.",
"L.L.L.L.L.L.L.L.L.L.X k ;.{ [ {  .2 + 4 p a.d.{ [ { [ I n p 5 : + $ K %.7 + $ : : : : < i i i i i i i i i i i i i i i i i i y i y y c J P J I J J J I I F P d.s.t 6 J I P F y Z L.L.L.L.L.L.",
"L.L.L.L.L.L.L.L.L.L.X k { [ { [ [ I I i u s Y 4.3.[ ] ] T T G D 0 6 5 2 : + : : $ : ; > i i i i i i i i i i i i i i i i i i y i y y c P J I I J J J K K ,.1.C B F G J I P b y A L.L.L.L.L.L.",
"L.L.L.L.L.L.L.L.L.6.X k { [ [ [ [ { { p i t v s.4.[ [ [ [ { ] P b u > + : : : : : : ; > i i i i i i i y i i i i y i i y i i i i i y v I P I J I J I F P 4.p.p t G I I G I b y m L.L.L.L.L.L.",
"L.L.L.L.L.L.L.6.+ l ] ] { T I ] [ [ [ W T [ T x Y p.3.[ [ [ ] ] T W G D i 4 > + : : : : : 3 i i i i i i i i i i i i i i i i i i i y i i b P I J I I ] [ n v G J P P I I I b y i i L.L.L.L.L.",
"L.L.L.L.L.L.L.6.O 9 %.[ [ I F W [ [ [ [ [ { T t B a.3.[ ] [ [ [ { { T J b i 1 : : : : : : > p y i i i i i i i y i i i i i i i i i i y u b P J I F F W [ a y F I I P I I I b y i i m L.L.L.L.",
"L.L.L.L.L.L.L.6.O 9 { U p i i b P ] [ [ [ [ [ [ Q [ { [ [ [ [ [ [ [ [ [ [ W J F i 6 : : : > i i i i i i i i i i i i i i y i i i i i i y v I J I 9 $ : < b I I J P G I I I b y y x v L.L.L.L.",
"L.L.L.L.L.L.L.6.O 9 ] b y 6 t b I Q ] { %.{ { [ [ [ [ [ [ [ [ [ [ [ [ [ [ [ E J v i : : : > y i i i y i i i i i i i i i i i i i i i y y a F F F 2 $ < < F J I P I I I I J b y y y x L.L.L.L.",
"L.L.L.L.L.L.L.8.O : : : $ $ + G { I P 4.d.d.2.[ W Q [ [ [ [ [ [ [ [ [ [ [ [ [ [ { T < : ; > p i i i i i i i i i i i i i i i i i p y i p 5 : ; : 6 p b I J J P G I F P J P n y i i i x L.L.L.",
"L.L.L.L.L.L.L.| $ > + < 2 2 2 G _ J G &.1.2.3.<.,.<.>.[ ] ] [ ] [ [ [ [ [ [ [ [ [ W < + : > i i y y i i i i y i i i i i x 6 6 8 6 8 6 8 > ; < 1 8 s F I J J P J I I J J G b y i i y x L.L.L.",
"L.L.L.L.L.e.: : p 6 + k ;.{ [ m y u u y p T ,.D.H.K.n.] W ] ] ] ] ] ] [ ] [ [ [ { T < + : > p i x y i p i p i p y p y u 6 : : $ : ; : ; : + k I J J J J J J J I G I P b p i i i i y i L.L.L.",
"L.L.L.L.L.r.% 3 p 5 O k { { { v y 6 6 5 6 b T j.z.N.z.t.<.t.<.t.,.%.%.%.;.%.{ [ { T < $ : : 6 6 8 6 6 6 6 8 6 6 6 6 6 8 5 : : : < % > > > > k I I P J I I P P P I I b b 6 6 x y i y i L.L.L.",
"L.L.L.L.L.r.u i p 3 O j { { { V u > : : ; ; $ e s ^ u.G.K.H.H.H.M.s.d.d.f.d.%.[ %.] : $ : : : : + : ; ; ; ; ; : : : ; ; + + ; ; > i p y y u b P I I P P I G I G P F p 6 + > x y i y p L.L.L.",
"L.L.L.L.2 ~ p i u i 9 I { T U 0 5 : : : : + : 3 6 k T t.y.s.j.l.y.,.3.3.,.;.Q I T n : : : : : : : ; : : : + : : : ; : > 3 3 > > 5 p p i p y v b b b J G G I P P b c 6 3 $ > u y i i i v v r.",
"L.L.L.e.< $ i i y n { { { V u > ; : : : : : : : : + + + % r c H E { [ [ I P P I y 4 : : : : : : : : ; ; + ; ; + ; ; $ y p i i p i i i i i i y i y y K E P P P G x y : + : > p i y i i i i q.",
"L.L.L.r.5 5 i i i n { [ { c 3 : ; : : : : : : : : + $ + > y i c n V L n n c b a N b : $ : : : : : > 5 5 5 5 5 5 5 5 5 i i i y i i i i i i i i y y i c b c n b c 6 > $ : : > p i i y i y t 9.",
"L.L.L.0.x y i i y b =.{ %.k + $ : : $ : : : : $ : : ; ; 3 i i i y y y y i i y p [ ] 1 $ : $ : : ; 5 x i p i i i x i i i i i i i i i y i i i i i p i y y y y u 6 : ; : : ; > p i i i i y y q.",
"L.L.l j p i i i i v V c q 2 $ $ : : : : $ : : : : : : + > i i y y i i i i i y p [ T < $ : : : : $ 3 y i i i y i y i i y i i i i i i i i i i i i i i u y y x u 8 : $ : : : 3 p y i i i y y q.",
"L.8.1 + y i i i i y u 3 + $ : : : $ : : : : : : : : : ; 5 i i i i i i i i i i i [ ] : $ : : : $ : 3 x i i i p i i i i i i i i i i i i i i y i i i i i i i i u y : : : : ; > p i i i i y t 9.",
"L.0.z 5 y i i i i 6 > : : : : : : : : $ : : : $ : : : + 5 i i i i i i i i i y x ] ] 6 5 : : : : $ 3 p i i i i i i y i i i i i i i i i i i i i i i i i i i i p 6 : ; : : ; > p i y i y _ 9.L.",
"L.5.B y i i i i i 6 + : : : : : : : : : : : : : : : : : > i i i i i i i y i y i ] ] p 6 : $ : : : 3 p i i i i i i i i i i i i i i i i i i i i i i i i i i i i y > $ $ : : > p y i y y L.L.L.",
"! f y y i i u 6 > : : : : : : : : $ : : $ : : : : $ : + 3 i i i i i i i i i 6 x ] [ _ G : : : : : 5 i i y i i i i i i i i i i i i i i i i i i y i i i i i i i 8 : + + $ + > y A r.8.9.L.L.L.",
"1 X y i i i i 6 ; : : : : : : : : : : : : : : : : : : $ 3 i i i i y i i i i y x ] [ %.I : : : $ : 3 i i i i i i i i i i i i i y i i i y i i i i y i i i i i u y : $ 1 1 2 5 x ) L.L.L.L.L.L.",
"7 O y y i i : : : : : : : : : : : : $ : : : $ : : : : ; 3 i i i i i i i i i y x [ [ { T $ ; : : : 5 p i i i i i i i y i i i i i i i y i i i i i 5 : y i i y u 6 O 2 6.6.6.6.9.q.L.L.L.L.L.L.",
"d + i p i 6 : : : : : : : $ : : : : : : : : : : : : : + 3 i i i i i i i i y y c T [ { I > : : : : > y i i i i i i i i i i i i i i i i i i i 8 i 1 + 6 i i u x v 2 M L.L.L.L.L.L.L.L.L.L.L.L.",
"2 . 4 t t 4 ; : : : : : : : : : : : : : : : : : : : : ; 3 i i i i i i i i i i i J I { T y 5 : : : : : 6 i i i i i i i i i p p i i i i i i p 5 : + X 4 t e i 7.8.5.8.L.L.L.L.L.L.L.L.L.L.L.L.",
"M f m A A c > : : : : $ : : : : $ : : : : $ : : : : : + 3 i i i i y i i i i i i F I [ _ p 6 : : : : ; 5 i i i i i i i i i 6 6 i i i i i i i 5 + 2 f n A m ( L.L.L.L.L.L.L.L.L.L.L.L.L.L.L.L.",
"6.L.L.L.L.8.= * o + o + $ $ : : $ : : : : $ : : : : : ; > i i i i i i i i i i i J I { T i 6 ; : : ; ; 5 i i i i i i i p i : > i i i i i i x % o ` L.L.L.L.L.L.L.L.L.L.L.L.L.L.L.L.L.L.L.L.L.",
"L.L.L.L.L.L.Y N l j j f > : : : : : : : : : : : : : : + 3 i i i i i i i y i i i G I { T y 6 : : : : : 5 p i i i i i i 6 5 ; > y i i i i y 4 g h e.L.L.L.L.L.L.L.L.L.L.L.L.L.L.L.L.L.L.L.L.L.",
"L.L.L.L.L.L.L.L.L.L.L.N - % o + ; : : : : : : : $ : : ; 3 y p i i i i i i i y i F P [ W p y $ : : : : 5 i i i i y i i $ + + > i p i i p > . ^ L.L.L.L.L.L.L.L.L.L.L.L.L.L.L.L.L.L.L.L.L.L.L.",
"L.L.L.L.L.L.L.L.L.L.L.L.) N l f > : $ : : : : : : : : + 3 i i i i y i i i i i i b L [ T 6 5 $ $ : : : 5 i i i i i 6 6 l j : > i i i i y c j 8.L.L.L.L.L.L.L.L.L.L.L.L.L.L.L.L.L.L.L.L.L.L.L.",
"L.L.L.L.L.L.L.L.L.L.L.L.L.L.L.v t $ + O + $ : $ : : : + 3 i p i i i i i i i y y e i Q I + + O + + O + * t y t y y @ + L.L.+ @ t y t y = ' L.L.L.L.L.L.L.L.L.L.L.L.L.L.L.L.L.L.L.L.L.L.L.L.L.",
"L.L.L.L.L.L.L.L.L.L.L.L.L.L.L.' ) L M M l 5 > 3 > : : + > i i i i y i i i i y x A ' >. .M M M M l K M ~ ) ) ) ( ( M M L.L.M M ) ) ( ) A 8.L.L.L.L.L.L.L.L.L.L.L.L.L.L.L.L.L.L.L.L.L.L.L.L.L.",
"L.L.L.L.L.L.L.L.L.L.L.L.L.L.L.L.L.L.L.L.L.v y u 6 $ + + > y y y y y y 6 y y t v L.L.L.L.L.L.L.L.L.L.L.L.L.L.L.L.L.L.L.L.L.L.L.L.L.L.L.L.L.L.L.L.L.L.L.L.L.L.L.L.L.L.L.L.L.L.L.L.L.L.L.L.L.L.",
"L.L.L.L.L.L.L.L.L.L.L.L.L.L.L.L.L.L.L.L.L.' A ( N M l M M Y ( ( ( ( ( ( ( ) A ) L.L.L.L.L.L.L.L.L.L.L.L.L.L.L.L.L.L.L.L.L.L.L.L.L.L.L.L.L.L.L.L.L.L.L.L.L.L.L.L.L.L.L.L.L.L.L.L.L.L.L.L.L.L."
};
