/* XPM */
static char *_2c199a18e5e4608e7a8027dbc5f8d0b5B0TSGAw0C1Kf05a[] = {
/* columns rows colors chars-per-pixel */
"123 24 3 1 ",
"  c None",
". c #191919",
"X c white",
/* pixels */
"XXX         XXXXXX      XXXXXXXXX      XXX      XXXXXX         XXX         XXXXXX   XXXXXX   XXX         XXXXXX   XXXXXX   ",
"XXX         XXXXXX      XXXXXXXXX      XXX      XXXXXX         XXX         XXXXXX   XXXXXX   XXX         XXXXXX   XXXXXX   ",
"XXX         XXXXXX      XXXXXXXXX      XXX      XXXXXX         XXX         XXXXXX   XXXXXX   XXX         XXXXXX   XXXXXX   ",
"XXX...      XXXXXX...XXX   ...XXXXXX   XXX...   XXXXXX...      XXX...      XXXXXX...XXXXXX...XXXXXX      XXXXXX...XXXXXX...",
"XXX...      XXXXXX...XXX   ...XXXXXX   XXX...   XXXXXX...      XXX...      XXXXXX...XXXXXX...XXXXXX      XXXXXX...XXXXXX...",
"XXX...      XXXXXX...XXX   ...XXXXXX   XXX...   XXXXXX...      XXX...      XXXXXX...XXXXXX...XXXXXX      XXXXXX...XXXXXX...",
"XXX...   XXXXXXXXX...XXX...   XXXXXX...XXX...   XXXXXX...      XXX...      XXXXXX...XXXXXX...XXX...XXX   XXXXXX...XXXXXX...",
"XXX...   XXXXXXXXX...XXX...   XXXXXX...XXX...   XXXXXX...      XXX...      XXXXXX...XXXXXX...XXX...XXX   XXXXXX...XXXXXX...",
"XXX...   XXXXXXXXX...XXX...   XXXXXX...XXX...   XXXXXX...      XXX...      XXXXXX...XXXXXX...XXX...XXX   XXXXXX...XXXXXX...",
"   XXXXXXXXXXXX......XXX...   XXXXXX...XXX...   XXXXXX...      XXX...XXX   XXXXXX...XXXXXX...XXX...   XXXXXXXXX...XXXXXX...",
"   XXXXXXXXXXXX......XXX...   XXXXXX...XXX...   XXXXXX...      XXX...XXX   XXXXXX...XXXXXX...XXX...   XXXXXXXXX...XXXXXX...",
"   XXXXXXXXXXXX......XXX...   XXXXXX...XXX...   XXXXXX...      XXX...XXX   XXXXXX...XXXXXX...XXX...   XXXXXXXXX...XXXXXX...",
"      XXXXXX......   XXX...   XXXXXX...XXX...   XXXXXX...      XXX...XXX...XXXXXX...XXXXXX...XXX...      XXXXXX...XXXXXX...",
"      XXXXXX......   XXX...   XXXXXX...XXX...   XXXXXX...      XXX...XXX...XXXXXX...XXXXXX...XXX...      XXXXXX...XXXXXX...",
"      XXXXXX......   XXX...   XXXXXX...XXX...   XXXXXX...      XXX...XXX...XXXXXX...XXXXXX...XXX...      XXXXXX...XXXXXX...",
"      XXXXXX...      XXX...   XXXXXX...XXX...   XXXXXX...      XXX...XXX...XXXXXX...XXXXXX...XXX...      XXXXXX...   ......",
"      XXXXXX...      XXX...   XXXXXX...XXX...   XXXXXX...      XXX...XXX...XXXXXX...XXXXXX...XXX...      XXXXXX...   ......",
"      XXXXXX...      XXX...   XXXXXX...XXX...   XXXXX....      XXX...XXX...XXXXXX...XXXXXX...XXX...      XXXXXX...   ......",
"      XXXXXX...         XXXXXXXXXX.....   XXXXXXXXX......         XXX...XXXXXX......XXXXXX...XXX...      XXXXXX...XXXXXX   ",
"      XXXXXX...         XXXXXXXXXX.....   XXXXXXXXX......         XXX...XXXXXX......XXXXXX...XXX...      XXXXXX...XXXXXX   ",
"      XXXXXX...         XXXXXXXXXX.....   XXXXXXXXX......         XXX...XXXXXX......XXXXXX...XXX...      XXXXXX...XXXXXX   ",
"         ......            ..........        .........               ...   ......      ......   ...         ......   ......",
"         ......            ..........        .........               ...   ......      ......   ...         ......   ......",
"         ......            ..........        .........               ...   ......      ......   ...         ......   ......"
};
